/* XPM */
static char *_bb04ae4cfef4ad8bef4be93473db40530k53OJ3qFCHNrpp[] = {
/* columns rows colors chars-per-pixel */
"31 32 14 1 ",
"  c None",
". c #4F422F",
"X c #B17B24",
"o c #BC892E",
"O c #C3963E",
"+ c #BA75BA",
"@ c #3B8FB3",
"# c #54CCFF",
"$ c #84848C",
"% c #EB94EB",
"& c #CAC6C0",
"* c #D3D2E0",
"= c #E8E7EF",
"- c white",
/* pixels */
"                               ",
"                               ",
"                               ",
"                               ",
"           .   ..              ",
"          .*. .oX.             ",
"          .**..OoX.            ",
"          .+**.%OoX.           ",
"          .++.o%%Oo..          ",
"         .*=OOOo%OOoX.         ",
"        .=---OOOOOOOOo.        ",
"       ..----.-OOOOOO-*.       ",
"       .------.-------=.       ",
"       .@----@@----&.-=.       ",
"       .#----##-------=.       ",
"       .*=.--------&.-*.       ",
"        .$*$---------=.        ",
"         ..*=======*..         ",
"           .........           ",
"           .**=---=*.          ",
"          ..*----*--=.         ",
"         .*.*---=*.--=.        ",
"         .*.*---==.=-=.        ",
"          ...*-===*.=.         ",
"            .**===*..   ..     ",
"             .===*.XX...=*.    ",
"            .====...===**.     ",
"            .***.   .....      ",
"             ...               ",
"                               ",
"                               ",
"                               "
};
