/* XPM */
static char *_46b0c752b6b49a1961739359834d9cfTwm3jGGQaFoOhhlH[] = {
/* columns rows colors chars-per-pixel */
"32 32 14 1 ",
"  c None",
". c #4F422F",
"X c #B17B24",
"o c #BC892E",
"O c #C3963E",
"+ c #BA75BA",
"@ c #3B8FB3",
"# c #54CCFF",
"$ c #84848C",
"% c #EB94EB",
"& c #CAC6C0",
"* c #D3D2E0",
"= c #E8E7EF",
"- c white",
/* pixels */
"                                ",
"                                ",
"                                ",
"               ..   .           ",
"              .*=. .X.          ",
"             .*=-..XX.          ",
"            .*=-%.XX+.          ",
"           ..=-%%=.++.          ",
"          .*=--%=--OoX.         ",
"         .=---------OOo.        ",
"        .*--------.--OO..       ",
"        .=-------.------.       ",
"        .o-.&----@@----@.       ",
"        .oO------##----#.       ",
"        .XO.&--------.=*.       ",
"         .=---------$*$.        ",
"          ..*=======*..         ",
"            .........           ",
"         .  .=---=**.           ",
"        .=. .--.---*.           ",
"        .=. .=--.--*.           ",
"        .*. ..=--.-*.           ",
"        .**..*.==.*.            ",
"         .*X.**..***.           ",
"          ...*===..**.          ",
"           .**==. .**.          ",
"            .**.   ..           ",
"             ..                 ",
"                                ",
"                                ",
"                                ",
"                                "
};
