/* XPM */
static char *result[] = {
/* columns rows colors chars-per-pixel */
"32 32 12 1 ",
"  c #4F422F",
". c #B17B24",
"X c #BC892E",
"o c #C3963E",
"O c #3B8FB3",
"+ c #54CCFF",
"@ c #84848C",
"# c #EB94EB",
"$ c #D3D2E0",
"% c #E8E7EF",
"& c white",
"* c None",
/* pixels */
"********************************",
"********************************",
"********************************",
"********************************",
"*********** ******* ************",
"********** % ***** X ***********",
"********* $&$ *** .o. **********",
"********* %#& *** o#X **********",
"******** $##&$   .o##. *********",
"******** %#%&%%%%XoX#X *********",
"******* $%&&&&&&&&oooX. ********",
"******* %&&& &&&&& ooo% ********",
"******* %&& &&&&&&& &&% ********",
"******  %&&OO&&&&&OO&&%  *******",
"******* %&&++&&&&&++&&% ********",
"******  $%&&&&& &&&&&%$  *******",
"******** $%&&&@$@&&&%$ *********",
"*********  $$%%%%%$$  **********",
"**********           ***********",
"********* %&%$$$$$%&% **********",
"******** %&$&&&&&&&$&% *********",
"******* $%$ &&&&&&& $%$ ********",
"******* $$  &&&&&&&  $$ ********",
"********  * %&&&&&% *  $ *******",
"*********** %$$$$$%   $$ *******",
"*********** %%   %% $$$ ********",
"*********** %%   %%    *********",
"*********** $$ * $$ ************",
"************  ***  *************",
"********************************",
"********************************",
"********************************"
};
