/* XPM */
static char *result[] = {
/* columns rows colors chars-per-pixel */
"64 58 169 2 ",
"   c #453722",
".  c #473924",
"X  c #493B27",
"o  c #4A3D2A",
"O  c #4E412E",
"+  c #5C4829",
"@  c #4C4030",
"#  c #514432",
"$  c #634D2C",
"%  c #67512E",
"&  c #7B5D2C",
"*  c #775A28",
"=  c #695535",
"-  c #6A5638",
";  c #645135",
":  c #7C602F",
">  c #7D6131",
",  c #625749",
"<  c #63584B",
"1  c #605547",
"2  c #685E51",
"3  c #675D51",
"4  c #6E614E",
"5  c #78664D",
"6  c #6C6155",
"7  c #6E6459",
"8  c #716654",
"9  c #70665A",
"0  c #746A5D",
"q  c #786E5F",
"w  c #746B60",
"e  c #796F61",
"r  c #7B7163",
"t  c #835F25",
"y  c #896326",
"u  c #896328",
"i  c #916D2E",
"p  c #9B6F28",
"a  c #9A6E25",
"s  c #9F7021",
"d  c #9E732B",
"f  c #8C6830",
"g  c #A37326",
"h  c #A3762A",
"j  c #A67A2D",
"k  c #A37C33",
"l  c #AA7E32",
"z  c #A57F38",
"x  c #9F7D47",
"c  c #867251",
"v  c #8C7C63",
"b  c #867E79",
"n  c #B5832B",
"m  c #BC872C",
"M  c #BD8A2C",
"N  c #AA8133",
"B  c #A98339",
"V  c #BC8C33",
"C  c #BD8E38",
"Z  c #C08C2F",
"A  c #C08E32",
"S  c #C19236",
"D  c #C3953C",
"F  c #C6983F",
"G  c #A3814C",
"H  c #A88750",
"J  c #AB8C53",
"K  c #8C847E",
"L  c #898179",
"P  c #908678",
"I  c #BA9F69",
"U  c #BEA26D",
"Y  c #C59A45",
"T  c #C49746",
"R  c #C59B53",
"E  c #C59D5A",
"W  c #C7A056",
"Q  c #CCA55D",
"!  c #CEA85E",
"~  c #C7A15E",
"^  c #D0A95E",
"/  c #CAA461",
"(  c #CEA962",
")  c #D1AE6A",
"_  c #D0AB66",
"`  c #D3B06B",
"'  c #C9AA7A",
"]  c #8E8780",
"[  c #948D84",
"{  c #96908F",
"}  c #9B948A",
"|  c #979090",
" . c #9B9596",
".. c #9D9798",
"X. c #9F999A",
"o. c #A19A96",
"O. c #AAA29C",
"+. c #B9AC9C",
"@. c #B6A89A",
"#. c #ABA5A2",
"$. c #BAAEA4",
"%. c #B7B2AA",
"&. c #B9B4AD",
"*. c #B2AFB6",
"=. c #B5B1B7",
"-. c #B5B2B9",
";. c #B9B6BB",
":. c #BEBABD",
">. c #CEB381",
",. c #D1B484",
"<. c #D8BD8C",
"1. c #C5BAAC",
"2. c #C7BAA4",
"3. c #C1BDBF",
"4. c #DCC28F",
"5. c #DDC392",
"6. c #D7C19E",
"7. c #E0C694",
"8. c #D6C3A5",
"9. c #D2C5BB",
"0. c #D3C8B9",
"q. c #E5D1AB",
"w. c #E8D5AF",
"e. c #BFBCC3",
"r. c #C2BEC2",
"t. c #C5C2C4",
"y. c #C9C5C5",
"u. c #C6C3C8",
"i. c #C9C6CA",
"p. c #CDCACC",
"a. c #D2CECB",
"s. c #DED1C1",
"d. c #D6D3CE",
"f. c #DDD6CE",
"g. c #D1CED1",
"h. c #D5D2D2",
"j. c #DCD9D6",
"k. c #D8D6DF",
"l. c #DDDBDA",
"z. c #E1D4C4",
"x. c #E6DAC9",
"c. c #E5DBD2",
"v. c #E0DEDC",
"b. c #EEE2CE",
"n. c #F0E5CF",
"m. c #ECE3D6",
"M. c #E7E0D9",
"N. c #F1E6D1",
"B. c #F5EDDE",
"V. c #DCDAE3",
"C. c #DEDEEC",
"Z. c #E0DDE5",
"A. c #E4E3EF",
"S. c #E9E7EB",
"D. c #ECEBEE",
"F. c #E1E0E0",
"G. c #F6EFE1",
"H. c #FAF2E4",
"J. c #E6E6F1",
"K. c #ECEBF4",
"L. c #EEEEF8",
"P. c #E8E7F2",
"I. c #F0EFF6",
"U. c #F2F1F6",
"Y. c #F8F6F4",
"T. c #FCFAF6",
"R. c #F4F4FA",
"E. c #FEFEFE",
"W. c None",
/* pixels */
"W.W.W.W.W.W.W.W.W.W.W.W.W.W.W.W.W.W.W.W.W.W.W.W.W.W.W.W.W.W.W.W.W.W.W.W.W.W.W.W.W.W.W.W.W.W.W.W.W.W.W.W.W.W.W.W.W.W.W.W.W.W.W.W.",
"W.W.W.W.W.W.W.W.W.W.W.W.W.W.W.W.W.W.W.W.W.W.W.W.W.W.W.W.W.W.W.W.W.W.W.W.W.W.W.W.W.W.W.W.W.W.W.W.W.W.W.W.W.W.W.W.W.W.W.W.W.W.W.W.",
"W.W.W.W.W.W.W.W.W.W.W.W.W.W.W.W.W.W.W.W.W.W.W.W.W.W.W.W.W.W.W.W.W.W.W.W.W.W.W.W.W.W.W.W.W.W.W.W.W.W.W.W.W.W.W.W.W.W.W.W.W.W.W.W.",
"W.W.W.W.W.W.W.W.W.W.W.W.W.W.W.W.W.W.W.W.W.W.W.W.W.W.W.W.W.W.W.W.W.W.W.W.W.W.W.W.W.W.W.W.W.W.W.W.W.W.W.W.W.W.W.W.W.W.W.W.W.W.W.W.",
"W.W.W.W.W.W.W.W.W.W.W.W.W.W.W.W.W.W.W.W.W.W.W.W.W.W.W.W.W.W.W.W.W.W.W.W.W.W.W.W.W.W.W.W.W.W.W.W.W.W.W.W.W.W.W.W.W.W.W.W.W.W.W.W.",
"W.W.W.W.W.W.W.W.W.W.W.W.W.W.W.W.W.W.W.W.W.W.W.W.W.W.W.W.W.W.W.W.W.W.W.W.W.W.W.W.W.W.W.W.W.W.W.W.W.W.W.W.W.W.W.W.W.W.W.W.W.W.W.W.",
"W.W.W.W.W.W.W.W.W.W.W.W.W.W.W.W.W.W.W.W.W.W.W.W.W.W.W.W.W.W.W.W.W.W.W.W.W.W.W.W.W.W.W.W.W.W.W.W.W.W.W.W.W.W.W.W.W.W.W.W.W.W.W.W.",
"W.W.W.W.W.W.W.W.W.W.W.W.W.W.W.W.W.W.W.W.W.W.W.W.W.W.W.W.W.W.W.W.W.W.W.W.W.W.W.W.W.W.W.W.W.W.W.W.W.W.W.W.W.W.W.W.W.W.W.W.W.W.W.W.",
"W.W.W.W.W.W.W.W.W.W.W.W.W.W.W.W.W.W.W.W.W.W.W.W.@ @ W.W.W.W.W.W.W.W.W.W.W.W.W.W.o X W.W.W.W.W.W.W.W.W.W.W.W.W.W.W.W.W.W.W.W.W.W.",
"W.W.W.W.W.W.W.W.W.W.W.W.W.W.W.W.W.W.W.W.W.W.W.W.= ; W.W.W.W.W.W.W.W.W.W.W.W.W.W.9 9 W.W.W.W.W.W.W.W.W.W.W.W.W.W.W.W.W.W.W.W.W.W.",
"W.W.W.W.W.W.W.W.W.W.W.W.W.W.W.W.W.W.W.W.W.W.o ; i i % o W.W.W.W.W.W.W.W.W.W.  7 #.#.9   W.W.W.W.W.W.W.W.W.W.W.W.W.W.W.W.W.W.W.W.",
"W.W.W.W.W.W.W.W.W.W.W.W.W.W.W.W.W.W.W.W.W.W.$ > l l : $ W.W.W.W.W.W.W.W.W.W.2 ] h.h.K 2 W.W.W.W.W.W.W.W.W.W.W.W.W.W.W.W.W.W.W.W.",
"W.W.W.W.W.W.W.W.W.W.W.W.W.W.W.W.W.W.W.W.o $ u h V C h u $ @ W.W.W.W.W.W.o 6 ..u.K.D.u...2 o W.W.W.W.W.W.W.W.W.W.W.W.W.W.W.W.W.W.",
"W.W.W.W.W.W.W.W.W.W.W.W.W.W.W.W.W.W.W.W.o $ p m S S m d % @ W.W.W.W.W.W.X 7 ;.K.E.E.P.-.7 o W.W.W.W.W.W.W.W.W.W.W.W.W.W.W.W.W.W.",
"W.W.W.W.W.W.W.W.W.W.W.W.W.W.W.W.W.W.W.W.o = h A D D D k % o W.W.W.W.W.W.. 9 y.E.E.E.K.;.9 . W.W.W.W.W.W.W.W.W.W.W.W.W.W.W.W.W.W.",
"W.W.W.W.W.W.W.W.W.W.W.W.W.W.W.W.W.W.W.W.$ : l A D F Y B > $ W.W.W.W.W.W.3 [ j.E.E.E.R.p.K 2 W.W.W.W.W.W.W.W.W.W.W.W.W.W.W.W.W.W.",
"W.W.W.W.W.W.W.W.W.W.W.W.W.W.W.W.W.W.@ $ u h V D D Y D C j y $ @ o o . 3 ..u.K.E.E.E.E.S.t...6 o W.W.W.W.W.W.W.W.W.W.W.W.W.W.W.W.",
"W.W.W.W.W.W.W.W.W.W.W.W.W.W.W.W.W.W.@ $ d m S T D D F C m h : % % - 6 K e.J.T.E.E.E.E.R.P.=.7 X W.W.W.W.W.W.W.W.W.W.W.W.W.W.W.W.",
"W.W.W.W.W.W.W.W.W.W.W.W.W.W.W.W.W.W.O % d V S D D T F C M n j h d H @.i.V.K.T.E.E.E.E.E.I.:.7 . W.W.W.W.W.W.W.W.W.W.W.W.W.W.W.W.",
"W.W.W.W.W.W.W.W.W.W.W.W.W.W.W.W.W.W.$ * j A D D D D D D C V V Z M / x.R.L.R.E.E.E.E.E.E.I.i.K 2 W.W.W.W.W.W.W.W.W.W.W.W.W.W.W.W.",
"W.W.W.W.W.W.W.W.W.W.W.W.W.W.W.W.o % t g n A S T D D D D D S D S S _ n.E.E.E.E.E.E.E.E.E.K.V.r...7 X W.W.W.W.W.W.W.W.W.W.W.W.W.W.",
"W.W.W.W.W.W.W.W.W.W.W.W.W.W.W.W.o - x T A V S D D T T D D D D Y ! 4.B.E.E.E.E.E.E.E.E.T.U.P.J.-.9 o W.W.W.W.W.W.W.W.W.W.W.W.W.W.",
"W.W.W.W.W.W.W.W.W.W.W.W.W.W.W.W.o 9 +.8.W S D D D D D D D D S ! q.B.T.E.E.E.E.E.E.E.E.E.E.R.K.:.9 X W.W.W.W.W.W.W.W.W.W.W.W.W.W.",
"W.W.W.W.W.W.W.W.W.W.W.W.W.W.W.W.o e t.v.5.! Y D S D D D D Y ! 5.G.E.E.E.E.E.E.E.E.E.E.E.E.E.R.3.0 o W.W.W.W.W.W.W.W.W.W.W.W.W.W.",
"W.W.W.W.W.W.W.W.W.W.W.W.W.W.W.W.o 0 r.I.G.q.Q S S D D S S Q q.G.T.E.E.E.E.E.E.E.E.E.E.E.E.E.I.3.0 o W.W.W.W.W.W.W.W.W.W.W.W.W.W.",
"W.W.W.W.W.W.W.W.W.W.W.W.W.W.W.W.o 0 3.U.E.G.5._ ) ) ) ) ) 5.B.E.E.E.E.T.B.n.N.N.n.B.T.E.E.E.R.:.0 o W.W.W.W.W.W.W.W.W.W.W.W.W.W.",
"W.W.W.W.W.W.W.W.W.W.W.W.W.W.O O o 0 r.U.E.T.B.n.n.n.N.m.n.B.T.E.E.E.E.G.5.) ) ) ` 5.B.E.E.E.L.3.0 o o O W.W.W.W.W.W.W.W.W.W.W.W.",
"W.W.W.W.W.W.W.W.W.W.W.W.W.W.O o o 0 r.I.R.E.E.E.E.E.E.E.E.E.E.E.E.T.G.q.Q S S S C Q q.G.Y.T.I.t.0 o O O W.W.W.W.W.W.W.W.W.W.W.W.",
"W.W.W.W.W.W.W.W.W.W.W.W.W.W.W.W.o 0 r.K.K.U.E.E.E.E.E.E.E.E.E.E.E.B.5.! Y D D S D Y ! 4.c.L.K.r.0 o W.W.W.W.W.W.W.W.W.W.W.W.W.W.",
"W.W.W.W.W.W.W.W.W.W.W.W.W.W.W.W.o 9 r.P.P.K.R.T.E.E.E.E.E.E.E.Y.B.q.! S D D D D D S V Q s.K.K.r.9 o W.W.W.W.W.W.W.W.W.W.W.W.W.W.",
"W.W.W.W.W.W.W.W.W.W.W.W.W.W.O O o 9 ;.C.P.P.K.I.E.E.E.E.E.E.E.B.4.Q Y D D D D T T S M E s.K.J.-.9 o o # W.W.W.W.W.W.W.W.W.W.W.W.",
"W.W.W.W.W.W.W.W.W.W.W.W.W.W.O O o 6 o.r.V.S.P.I.R.T.E.T.E.E.E.m.<.W D C D S S S A T R ,.f.V.r...8 o O O W.W.W.W.W.W.W.W.W.W.W.W.",
"W.W.W.W.W.W.W.W.W.W.W.W.W.W.W.W.W.W.2 L e.A.P.K.I.D.I.D.I.K.K.S.x.6.R m m M M M m R 6.c.V.e.L 2 W.W.W.W.W.W.W.W.W.W.W.W.W.W.W.W.",
"W.W.W.W.W.W.W.W.W.W.W.W.W.W.W.W.W.W.. 2 ..-.:.p.V.J.A.J.P.P.D.K.K.c.,.~ ~ ~ ~ E E ' 1.e.;...2 . W.W.W.W.W.W.W.W.W.W.W.W.W.W.W.W.",
"W.W.W.W.W.W.W.W.W.W.W.W.W.W.W.W.W.W.W.W.6 7 9 K t.C.C.C.J.K.K.K.L.S.x.s.s.s.0.9.9.$.b 0 7 6 W.W.W.W.W.W.W.W.W.W.W.W.W.W.W.W.W.W.",
"W.W.W.W.W.W.W.W.W.W.W.W.W.W.W.W.W.W.W.W.O . . , { *.*.-.:.3.r.e.e.e.r.u.u.e.-.*.*. ., . . o W.W.W.W.W.W.W.W.W.W.W.W.W.W.W.W.W.W.",
"W.W.W.W.W.W.W.W.W.W.W.W.W.W.W.W.W.W.W.W.W.W.O # 1 6 7 7 7 9 0 0 9 0 9 w w 9 7 7 6 < # . W.W.W.W.W.W.W.W.W.W.W.W.W.W.W.W.W.W.W.W.",
"W.W.W.W.W.W.W.W.W.W.W.W.W.W.W.W.W.W.W.W.W.W.8 0 q 8 = % % % % % % % ; $ % = 6 9 q q w 9 W.W.W.W.W.W.W.W.W.W.W.W.W.W.W.W.W.W.W.W.",
"W.W.W.W.W.W.W.W.W.W.W.W.W.W.W.W.W.W.W.W.  6 #.i.p.8.J d N B B N B B B N N J +.t.p.a.y.#.7   W.W.W.W.W.W.W.W.W.W.W.W.W.W.W.W.W.W.",
"W.W.W.W.W.W.W.W.W.W.W.W.W.W.W.W.W.W.W.W.9 [ g.R.E.n.( M D F C F Y C D Y ! 4.M.R.R.E.R.p.K 2 W.W.W.W.W.W.W.W.W.W.W.W.W.W.W.W.W.W.",
"W.W.W.W.W.W.W.W.W.W.W.W.W.W.W.W.W.W.  9 $.v.Y.E.R.b.( V D F F F F F S ! q.G.T.R.P.A.P.V.r...6 o W.W.W.W.W.W.W.W.W.W.W.W.W.W.W.W.",
"W.W.W.W.W.W.W.W.W.W.W.W.W.W.W.W.W.W.9 } l.E.E.D.h.1.>.( Y S F S C Y ! 5.G.E.E.D.y.e.k.J.C.*.7 o W.W.W.W.W.W.W.W.W.W.W.W.W.W.W.W.",
"W.W.W.W.W.W.W.W.W.W.W.W.W.W.W.W.o 0 %.v.Y.E.E.g.K P 0.w.( C S C C ! q.G.T.E.E.j.K b r.A.C.=.9 o W.W.W.W.W.W.W.W.W.W.W.W.W.W.W.W.",
"W.W.W.W.W.W.W.W.W.W.W.W.W.W.W.W.o e d.E.E.U.h..., q h.H.7.` ` ` ` 5.G.E.E.E.E.a.0 1 { =.=...7 o W.W.W.W.W.W.W.W.W.W.W.W.W.W.W.W.",
"W.W.W.W.W.W.W.W.W.W.W.W.W.W.W.W.X e d.E.E.v.[ < @ r d.T.G.N.N.N.N.H.T.E.E.E.E.d.q # < 7 9 7 W.W.W.W.W.W.W.W.W.W.W.W.W.W.W.W.W.W.",
"W.W.W.W.W.W.W.W.W.W.W.W.W.W.W.W.o 0 %.f.d.&.0   . q p.E.E.E.E.T.H.N.N.n.N.B.T.a.e o X o X o W.W.W.W.W.W.W.W.W.W.W.W.W.W.W.W.W.W.",
"W.W.W.W.W.W.W.W.W.W.W.W.W.W.W.W.W.W.0 e e 0 W.W.. 0 t.E.E.E.E.G.5.) ) ` ` 5.m.t.0 o W.W.W.W.W.W.W.W.W.W.W.W.W.W.W.W.W.W.W.W.W.W.",
"W.W.W.W.W.W.W.W.W.W.W.W.W.W.W.W.W.W.o o o o W.W.o 0 3.A.l.f.m.q.! V N N n / z.t.0 o W.W.W.W.W.W.W.W.W.W.W.W.W.W.W.W.W.W.W.W.W.W.",
"W.W.W.W.W.W.W.W.W.W.W.W.W.W.W.W.W.W.W.W.W.W.W.W.o q t.g.[ v I ( D l & * g E 0.r.w o W.W.W.W.W.W.W.W.W.W.W.W.W.W.W.W.W.W.W.W.W.W.",
"W.W.W.W.W.W.W.W.W.W.W.W.W.W.W.W.W.W.W.W.W.W.W.W.o 9 #.O.5 * N S A h $ = x ' m.t.0 o W.W.W.W.W.W.W.W.W.W.W.W.W.W.W.W.W.W.W.W.W.W.",
"W.W.W.W.W.W.W.W.W.W.W.W.W.W.W.W.W.W.W.W.W.W.W.W.W.W.7 5 f h C S m a $ 2 @.c.Y.a.e o W.W.W.W.W.W.W.W.W.W.W.W.W.W.W.W.W.W.W.W.W.W.",
"W.W.W.W.W.W.W.W.W.W.W.W.W.W.W.W.W.W.W.W.W.W.W.W.W.W.0 c l V V n h t + 0 y.E.E.a.e X W.W.W.W.W.W.W.W.W.W.W.W.W.W.W.W.W.W.W.W.W.W.",
"W.W.W.W.W.W.W.W.W.W.W.W.W.W.o o o o o o X o X .   0 &.8.Q V m h * + o e a.E.E.d.e X W.W.W.W.W.W.W.W.W.W.W.W.W.W.W.W.W.W.W.W.W.W.",
"W.W.W.W.W.W.W.W.W.W.W.W.W.W.9 9 0 q e r r r r e e } Z.m.U k d u $ o o e a.E.E.a.e o W.W.W.W.W.W.W.W.W.W.W.W.W.W.W.W.W.W.W.W.W.W.",
"W.W.W.W.W.W.W.W.W.W.W.W.o 6 o.;.r.y.d.h.h.h.f.h.d.v.I.a.v % $ $ W.W.o w y.R.R.y.0 o W.W.W.W.W.W.W.W.W.W.W.W.W.W.W.W.W.W.W.W.W.W.",
"W.W.W.W.W.W.W.W.W.W.W.W.o 7 o.;.r.y.a.f.h.f.h.f.h.d.y.#.7 o o O W.W.X 9 O.t.t.#.9 o W.W.W.W.W.W.W.W.W.W.W.W.W.W.W.W.W.W.W.W.W.W.",
"W.W.W.W.W.W.W.W.W.W.W.W.W.W.7 0 0 e e r r r e r r q 0 9 W.W.W.W.W.W.W.W.9 0 0 9 W.W.W.W.W.W.W.W.W.W.W.W.W.W.W.W.W.W.W.W.W.W.W.W.",
"W.W.W.W.W.W.W.W.W.W.W.W.W.W.o o X o o o X o o o o o o o W.W.W.W.W.W.W.W.o o o X W.W.W.W.W.W.W.W.W.W.W.W.W.W.W.W.W.W.W.W.W.W.W.W."
};
