/* XPM */
static char *result[] = {
/* columns rows colors chars-per-pixel */
"64 66 214 2 ",
"   c #453722",
".  c #463924",
"X  c #493A25",
"o  c #4B3E2B",
"O  c #453A28",
"+  c #4B3C2B",
"@  c #77551E",
"#  c #62481D",
"$  c #4E412F",
"%  c #53442D",
"&  c #5B4A2F",
"*  c #58472E",
"=  c #4F4230",
"-  c #4F493A",
";  c #524533",
":  c #554835",
">  c #564A39",
",  c #594C3B",
"<  c #554937",
"1  c #5C503F",
"2  c #644E2C",
"3  c #654E26",
"4  c #6B522B",
"5  c #72562B",
"6  c #7C5C2A",
"7  c #6B5635",
"8  c #775E31",
"9  c #7F6333",
"0  c #3E6A76",
"q  c #5E5243",
"w  c #5E554A",
"e  c #584F41",
"r  c #615646",
"t  c #625748",
"y  c #655A4C",
"u  c #6B5B4B",
"i  c #695F51",
"p  c #6D5751",
"a  c #77535E",
"s  c #6C6153",
"d  c #6F665C",
"f  c #71675C",
"g  c #756A5C",
"h  c #7A5967",
"j  c #546D71",
"k  c #766C62",
"l  c #786E64",
"z  c #7B6469",
"x  c #7A7065",
"c  c #7C746B",
"v  c #797773",
"b  c #87652C",
"n  c #956C29",
"m  c #9F7127",
"M  c #92712D",
"N  c #886A3D",
"B  c #957033",
"V  c #AD7C2A",
"C  c #A2762B",
"Z  c #AB7E2D",
"A  c #866E4B",
"S  c #A6735E",
"D  c #857B6B",
"F  c #847B74",
"G  c #867E7A",
"H  c #807571",
"J  c #A17062",
"K  c #BD8B2C",
"L  c #B6832B",
"P  c #B98B34",
"I  c #BC913E",
"U  c #AB8033",
"Y  c #C08D2D",
"T  c #C18E35",
"R  c #C19235",
"E  c #C2943B",
"W  c #C8983B",
"Q  c #C3922F",
"!  c #A78447",
"~  c #AE8F5B",
"^  c #8A827D",
"/  c #898074",
"(  c #93897E",
")  c #AA987D",
"_  c #C49641",
"`  c #C6944A",
"'  c #C89457",
"]  c #C58A5E",
"[  c #CCA24E",
"{  c #CAA358",
"}  c #D19477",
"|  c #CD926D",
" . c #D3AE67",
".. c #D6B779",
"X. c #CDAB72",
"o. c #477B8A",
"O. c #9B6D8E",
"+. c #AE74AA",
"@. c #B373AE",
"#. c #C27EC2",
"$. c #3E84A0",
"%. c #5F848F",
"&. c #69A1B8",
"*. c #4B93B2",
"=. c #359DCA",
"-. c #449CC1",
";. c #5CAFD2",
":. c #76B8D4",
">. c #4ABCEC",
",. c #7DD6FA",
"<. c #74CAF0",
"1. c #8F8781",
"2. c #898986",
"3. c #938B85",
"4. c #958E8B",
"5. c #97908A",
"6. c #9A928C",
"7. c #9C948A",
"8. c #9B9597",
"9. c #BB8385",
"0. c #A29C9D",
"q. c #A49D94",
"w. c #A89C8B",
"e. c #A8A19A",
"r. c #9A9AA2",
"t. c #A69AA3",
"y. c #B699BB",
"u. c #97B1BA",
"i. c #A6A1A3",
"p. c #AAA5A3",
"a. c #ABA6AA",
"s. c #AEA9AB",
"d. c #AAA6A7",
"f. c #B2ADAB",
"g. c #B7B2AE",
"h. c #ABA9B0",
"j. c #B1ADB2",
"k. c #BEB9B2",
"l. c #B9B6BD",
"z. c #B8B4B7",
"x. c #D49586",
"c. c #DABD85",
"v. c #CFB589",
"b. c #D38FB6",
"n. c #E094BB",
"m. c #C1BCB5",
"M. c #C1BDBD",
"N. c #C8BDAA",
"B. c #E2CB9B",
"V. c #C9C4BC",
"C. c #C5C1BC",
"Z. c #D7C9BA",
"A. c #DAD1BF",
"S. c #EAD9B9",
"D. c #E3CDA1",
"F. c #BDBBC3",
"G. c #C69ACE",
"H. c #CC86C8",
"J. c #E396C5",
"K. c #E595D3",
"L. c #C1BCC5",
"P. c #C2BFC9",
"I. c #CCAFD2",
"U. c #EA94E6",
"Y. c #B9D0DF",
"T. c #8AD5F3",
"R. c #B3D8E8",
"E. c #9CE2FF",
"W. c #AFE8FF",
"Q. c #C5C2C7",
"!. c #C5C3CD",
"~. c #C9C5C8",
"^. c #CDCACD",
"/. c #CBC7C4",
"(. c #D1CECC",
"). c #D6CEC1",
"_. c #CBC9D2",
"`. c #CBC6D5",
"'. c #D0CED7",
"]. c #DAD6D3",
"[. c #D5D3DC",
"{. c #DDDADB",
"}. c #D7D6D8",
"|. c #D6D3CE",
" X c #E2DFDC",
".X c #F3EAD9",
"XX c #ECE6D4",
"oX c #D6D5E2",
"OX c #DCDAE4",
"+X c #DEDDE9",
"@X c #D9D7E3",
"#X c #E1DEE4",
"$X c #C9E8F5",
"%X c #D6EAF8",
"&X c #D7F3FE",
"*X c #CEE2EA",
"=X c #E5E3E3",
"-X c #E5E4ED",
";X c #E8E7EF",
":X c #EBEAEC",
">X c #E9E8E6",
",X c #F6F0E3",
"<X c #F6F2EB",
"1X c #E6E5F1",
"2X c #EBEBF3",
"3X c #E9E9F3",
"4X c #E2F6FE",
"5X c #EEF6FB",
"6X c #F3F3F5",
"7X c #F4F4FA",
"8X c #FEFEFE",
"9X c #F6FAFA",
"0X c #F3EFEC",
"qX c None",
/* pixels */
"qXqXqXqXqXqXqXqXqXqXqXqXqXqXqXqXqXqXqXqXqXqXqXqXqXqXqXqXqXqXqXqXqXqXqXqXqXqXqXqXqXqXqXqXqXqXqXqXqXqXqXqXqXqXqXqXqXqXqXqXqXqXqXqX",
"qXqXqXqXqXqXqXqXqXqXqXqXqXqXqXqXqXqXqXqXqXqXqXqXqXqXqXqXqXqXqXqXqXqXqXqXqXqXqXqXqXqXqXqXqXqXqXqXqXqXqXqXqXqXqXqXqXqXqXqXqXqXqXqX",
"qXqXqXqXqXqXqXqXqXqXqXqXqXqXqXqXqXqXqXqXqXqXqXqXqXqXqXqXqXqXqXqXqXqXqXqXqXqXqXqXqXqXqXqXqXqXqXqXqXqXqXqXqXqXqXqXqXqXqXqXqXqXqXqX",
"qXqXqXqXqXqXqXqXqXqXqXqXqXqXqXqXqXqXqXqXqXqXqXqXqXqXqXqXqXqXqXqXqXqXqXqXqXqXqXqXqXqXqXqXqXqXqXqXqXqXqXqXqXqXqXqXqXqXqXqXqXqXqXqX",
"qXqXqXqXqXqXqXqXqXqXqXqXqXqXqXqXqXqXqXqXqXqXqXqXqXqXqXqXqXqXqXqXqXqXqXqXqXqXqXqXqXqXqXqXqXqXqXqXqXqXqXqXqXqXqXqXqXqXqXqXqXqXqXqX",
"qXqXqXqXqXqXqXqXqXqXqXqXqXqXqXqXqXqXqXqXqXqXqXqXqXqXqXqXqXqXqXqXqXqXqXqXqXqXqXqXqXqXqXqXqXqXqXqXqXqXqXqXqXqXqXqXqXqXqXqXqXqXqXqX",
"qXqXqXqXqXqXqXqXqXqXqXqXqXqXqXqXqXqXqXqXqXqXqXqXqXqXqXqXqXqXqXqXqXqXqXqXqXqXqXqXqXqXqXqXqXqXqXqXqXqXqXqXqXqXqXqXqXqXqXqXqXqXqXqX",
"qXqXqXqXqXqXqXqXqXqXqXqXqXqXqXqXqXqXqXqXqXqXqXqXqXqXqXqXqXqXqXqXqXqXqXqXqXqXqXqXqXqXqXqXqXqXqXqXqXqXqXqXqXqXqXqXqXqXqXqXqXqXqXqX",
"qXqXqXqXqXqXqXqXqXqXqXqXqXqXqXqXqXqXqXqXqXqXqXO qXqXqXqXqXqXqXqXo o qXqXqXqXqXqXqXqXqXqXqXqXqXqXqXqXqXqXqXqXqXqXqXqXqXqXqXqXqXqX",
"qXqXqXqXqXqXqXqXqXqXqXqXqXqXqXqXqXqXqXqXqXqXqXq q qXqXqXqXqXqX& & & & qXqXqXqXqXqXqXqXqXqXqXqXqXqXqXqXqXqXqXqXqXqXqXqXqXqXqXqXqX",
"qXqXqXqXqXqXqXqXqXqXqXqXqXqXqXqXqXqXqXqXqX; l 4.^ 1 qXqXqXqX3 b n b 6 2 qXqXqXqXqXqXqXqXqXqXqXqXqXqXqXqXqXqXqXqXqXqXqXqXqXqXqXqX",
"qXqXqXqXqXqXqXqXqXqXqXqXqXqXqXqXqXqXqXqXqX< F F.d.d > qXqX$ 5 C P L m 5 * qXqXqXqXqXqXqXqXqXqXqXqXqXqXqXqXqXqXqXqXqXqXqXqXqXqXqX",
"qXqXqXqXqXqXqXqXqXqXqXqXqXqXqXqXqXqXqXqXqX; v `.!.t.G q O + 7 U Q Y V n b 3 qXqXqXqXqXqXqXqXqXqXqXqXqXqXqXqXqXqXqXqXqXqXqXqXqXqX",
"qXqXqXqXqXqXqXqXqXqXqXqXqXqXqXqXqXqXqXqXqX< H F.@X'.a.d < o 7 S ` T Y V m 4 * qXqXqXqXqXqXqXqXqXqXqXqXqXqXqXqXqXqXqXqXqXqXqXqXqX",
"qXqXqXqXqXqXqXqXqXqXqXqXqXqXqXqXqXqXqXqXqX< z y.I.oX!.i.c e A S x.` Q Y V m b 3 qXqXqXqXqXqXqXqXqXqXqXqXqXqXqXqXqXqXqXqXqXqXqXqX",
"qXqXqXqXqXqXqXqXqXqXqXqXqXqXqXqXqXqXqXqXqX= h @.G.`.'.!.t.p h #.n.} _ P L V m 4 % qXqXqXqXqXqXqXqXqXqXqXqXqXqXqXqXqXqXqXqXqXqXqX",
"qXqXqXqXqXqXqXqXqXqXqXqXqXqXqXqXqXqXqXqXqXo a +.H.G.h.r.D A J H.U.n.x.` Q Y V 5 o o qXqXqXqXqXqXqXqXqXqXqXqXqXqXqXqXqXqXqXqXqXqX",
"qXqXqXqXqXqXqXqXqXqXqXqXqXqXqXqXqXqXqXqXqX> h +.H.@.O.p 5 C ] n.U.U.n.| R K U 8 < $ * qXqXqXqXqXqXqXqXqXqXqXqXqXqXqXqXqXqXqXqXqX",
"qXqXqXqXqXqXqXqXqXqXqXqXqXqXqXqXqXqXqXqXd G t.G.b.9.S N M P ` } b.U.K.} E R P B 9 6 5 4 qXqXqXqXqXqXqXqXqXqXqXqXqXqXqXqXqXqXqXqX",
"qXqXqXqXqXqXqXqXqXqXqXqXqXqXqXqXqXqXqX, G L.oX#XZ. .I I I E T I ] n.J.} W E I P L V m 6 * qXqXqXqXqXqXqXqXqXqXqXqXqXqXqXqXqXqXqX",
"qXqXqXqXqXqXqXqXqXqXqXqXqXqXqXqXqXqXg 1.f.#X7X7XXXB...[ W E R K ` x.x.' _ E E W T T L n 6 2 qXqXqXqXqXqXqXqXqXqXqXqXqXqXqXqXqXqX",
"qXqXqXqXqXqXqXqXqXqXqXqXqXqXqXqXqX> 1.(.2X9X8X8X8X<XS.{ E _ W I _ ` ` ` E E _ E E E E P Z b : qXqXqXqXqXqXqXqXqXqXqXqXqXqXqXqXqX",
"qXqXqXqXqXqXqXqXqXqXqXqXqXqXqXqX  ; 3.>X8X8X8X8X8X8XA.~ ! ..c.[ Q I E E R E R E E E _  .v.) H k qXqXqXqXqXqXqXqXqXqXqXqXqXqXqXqX",
"qXqXqXqXqXqXqXqXqXqXqXqXqXqXqX% X , q.:X8X8X8X8X8X9Xm.g D ).S. .E W _ E _ _ _ _ E E [ D..X#XF.G > qXqXqXqXqXqXqXqXqXqXqXqXqXqXqX",
"qXqXqXqXqXqXqXqXqXqXqXqXqXqXo : s ( V.9X8X8X8X8X8X8X].q.5.f.C.c.c.c.c.c.c.c.c.c.c.c.B..X8X9X[.3., . qXqXqXqXqXqXqXqXqXqXqXqXqXqX",
"qXqXqXqXqXqXqXqXqXqXqXqXqXqX  , 3.].<X8X8X8X8X8X8X8X9X:Xk.c / Z.<X,X,X,X,X,X,X,X,X,X,X9X8X9X#X3.,   qXqXqXqXqXqXqXqXqXqXqXqXqXqX",
"qXqXqXqXqXqXqXqXqXqXqXqXqXqX  > %.Y.4X8X8X8X8X8X8X8X5X*Xu.j %.}.8X8X8X8X8X8X8X9X>X^./.=X8X9X#X5.,   qXqXqXqXqXqXqXqXqXqXqXqXqXqX",
"qXqXqXqXqXqXqXqXqXqXqXqXqXqXX < j &.R.5X8X8X8X8X8X8X*X:.*.%.&.*X8X8X8X8X8X8X9X=XC.( x k.9X8X#X5.,   qXqXqXqXqXqXqXqXqXqXqXqXqXqX",
"qXqXqXqXqXqXqXqXqXqXqXqXqXqXX > j -.T.6X8X8X8X8X8X8XW.;.=.=.:.%X8X8X8X8X8X8X9X>X/.q.( V.9X8X+X5.,   qXqXqXqXqXqXqXqXqXqXqXqXqXqX",
"qXqXqXqXqXqXqXqXqXqXqXqXqXqXX - o.>.E.5X8X8X8X8X8X8X$X<.>.>.,.&X8X8X8X8X8X8X8X8X<X=X X0X8X8XOX5.,   qXqXqXqXqXqXqXqXqXqXqXqXqXqX",
"qXqXqXqXqXqXqXqXqXqXqXqXqXqXX > %.<.W.5X>X).{.9X8X8X&XE.,.T.E.4X8X8X8X8X8X8X8X<X0X].|.>X9X9X@X3.,   qXqXqXqXqXqXqXqXqXqXqXqXqXqX",
"qXqXqXqXqXqXqXqXqXqXqXqXqXqX  , ^ Y.3X3Xg.D e.:X8X8X9X&X&X&X4X9X8X8X8X8X8X8X9X>XV.3.D M.9X7X[.1., . qXqXqXqXqXqXqXqXqXqXqXqXqXqX",
"qXqXqXqXqXqXqXqXqXqXqXqXqXqXqX> G s.!.!.r.c 5._.2X9X8X8X8X8X8X8X8X8X8X8X8X8X9X>XV.5./ C.6X}.s.F > qXqXqXqXqXqXqXqXqXqXqXqXqXqXqX",
"qXqXqXqXqXqXqXqXqXqXqXqXqXqXqXqXy d G r.h.j.h.i.Q.6X8X8X8X8X8X8X8X8X8X8X8X8X8X9X0X{.].:X=Xp.k t qXqXqXqXqXqXqXqXqXqXqXqXqXqXqXqX",
"qXqXqXqXqXqXqXqXqXqXqXqXqXqXqXqXqX= w v 8.h.h.r.l.:X8X8X8X8X8X9X8X8X8X9X8X8X8X9X6X=X].^.l./ ; qXqXqXqXqXqXqXqXqXqXqXqXqXqXqXqXqX",
"qXqXqXqXqXqXqXqXqXqXqXqXqXqXqXqXqXqXe e y k 4.l.oX2X7X7X7X7X7X7X7X7X6X6X6X7X7X2XoXe.D x k s qXqXqXqXqXqXqXqXqXqXqXqXqXqXqXqXqXqX",
"qXqXqXqXqXqXqXqXqXqXqXqXqXqXqXqXqXqXqX$ X = c h.Q.~.~.~./.~.~.~.~.~.~./.Q.Q.Q.L.a.c = X $ qXqXqXqXqXqXqXqXqXqXqXqXqXqXqXqXqXqXqX",
"qXqXqXqXqXqXqXqXqXqXqXqXqXqXqXqXqXqXqXqXqXqXs l x x x x l x x l k l l l l l l l f y qXqXqXqXqXqXqXqXqXqXqXqXqXqXqXqXqXqXqXqXqXqX",
"qXqXqXqXqXqXqXqXqXqXqXqXqXqXqXqXqXqXqXqXqXqXqX$ ; w t y y y u u s s s i i i u y t qXqXqXqXqXqXqXqXqXqXqXqXqXqXqXqXqXqXqXqXqXqXqX",
"qXqXqXqXqXqXqXqXqXqXqXqXqXqXqXqXqXqXqXqXqXqXqX$ s 5.i.t.i.d.g.z.m.m.m.m.m.f.f.i.8.k X qXqXqXqXqXqXqXqXqXqXqXqXqXqXqXqXqXqXqXqXqX",
"qXqXqXqXqXqXqXqXqXqXqXqXqXqXqXqXqXqXqXqXqXqXqX; c L.@X@X#X3X6X8X8X8X8X8X7X2X2X-X_.1.y , qXqXqXqXqXqXqXqXqXqXqXqXqXqXqXqXqXqXqXqX",
"qXqXqXqXqXqXqXqXqXqXqXqXqXqXqXqXqXqXqXqXqXX . $ v P.1X2X7X9X8X8X8X8X8X2X3X8X8X8X;X/.i.x $ qXqXqXqXqXqXqXqXqXqXqXqXqXqXqXqXqXqXqX",
"qXqXqXqXqXqXqXqXqXqXqXqXqXqXqXqXqXqXqXqXqXq : ; c L.1X9X8X8X8X8X8X8X6X#X[.=X0X9X8X9X{.6.y : qXqXqXqXqXqXqXqXqXqXqXqXqXqXqXqXqXqX",
"qXqXqXqXqXqXqXqXqXqXqXqXqXqXqXqXqXqXqX< c 4.c , c F.1X9X8X8X8X8X8X7X3X+X!.e.q.|.8X8X6X~.e.H > qXqXqXqXqXqXqXqXqXqXqXqXqXqXqXqXqX",
"qXqXqXqXqXqXqXqXqXqXqXqXqXqXqXqXqXqXqX; ^ F.8.t l F.1X9X8X8X8X8X8X2X-X#XF.l s k.8X8X8X7X{.1.: qXqXqXqXqXqXqXqXqXqXqXqXqXqXqXqXqX",
"qXqXqXqXqXqXqXqXqXqXqXqXqXqXqXqXqXqXqX< 2._.i.y c F.3X8X8X8X8X8X8X2X1X1XL.f r f.9X8X8X8X-X3.>   qXqXqXqXqXqXqXqXqXqXqXqXqXqXqXqX",
"qXqXqXqXqXqXqXqXqXqXqXqXqXqXqXqXqXqXqX< G l.8.r l z.+X6X8X8X8X8X9X2X2X2X^.F s i.#X7X9X2X(.^ , qXqXqXqXqXqXqXqXqXqXqXqXqXqXqXqXqX",
"qXqXqXqXqXqXqXqXqXqXqXqXqXqXqXqXqXqXqXqXk G k > q F d.}.7X8X8X9X2X2X:X2X@Xf.4.3.0.|.:XM.4.l qXqXqXqXqXqXqXqXqXqXqXqXqXqXqXqXqXqX",
"qXqXqXqXqXqXqXqXqXqXqXqXqXqXqXqXqXqXqXqXqX> ; ; $ > c F.1X5X9X2X;X;X;X;X#XOXl.c i i.(.4.1 qXqXqXqXqXqXqXqXqXqXqXqXqXqXqXqXqXqXqX",
"qXqXqXqXqXqXqXqXqXqXqXqXqXqXqXqXqXqXqXqXqXqXX $ . X l F.+X1X3X;X;X;X;X;X3X1XP.l < l 3.x qXqXqXqXqXqXqX. qXqXqXqXqXqXqXqXqXqXqXqX",
"qXqXqXqXqXqXqXqXqXqXqXqXqXqXqXqXqXqXqXqXqXqXqXqXqX= x z.[.@XOX-X;X;X-X;X1X@Xl.H : : , qXqXqXqXqXqXqX> > > > qXqXqXqXqXqXqXqXqXqX",
"qXqXqXqXqXqXqXqXqXqXqXqXqXqXqXqXqXqXqXqXqXqXqXqXqXqXs ^ t.^.-X;X;X;X1X1XoXj.( A b @ @ # qXqXqXqXqXx 3.4.3.c q qXqXqXqXqXqXqXqXqX",
"qXqXqXqXqXqXqXqXqXqXqXqXqXqXqXqXqXqXqXqXqXqXqXqXqXqXqXr F /.3X3X;X3X#X+XF.c 7 b C V C 8 : < : ; 1 5.(.@X!.4.q . qXqXqXqXqXqXqXqX",
"qXqXqXqXqXqXqXqXqXqXqXqXqXqXqXqXqXqXqXqXqXqXqXqXqXqXs F i.}.2X3X2X6X#Xj.G r o 4 n ~ v.w.3.3.3.^ 3.z.+X`.t.H q qXqXqXqXqXqXqXqXqX",
"qXqXqXqXqXqXqXqXqXqXqXqXqXqXqXqXqXqXqXqXqXqXqXqXqX= c L.#X-X1X;X;X;X!.F , * % + u e.].{.].[.'.^.!.'.'.8.s > qXqXqXqXqXqXqXqXqXqX",
"qXqXqXqXqXqXqXqXqXqXqXqXqXqXqXqXqXqXqXqXqXqXqXqXqX= c ^.2X3X1X1X{.z.6.s X X + X q 3.p.p.p.f.d.i.0.8.8.c ; qXqXqXqXqXqXqXqXqXqXqX",
"qXqXqXqXqXqXqXqXqXqXqXqXqXqXqXqXqXqXqXqXqXqXqXqXqX= x F.@XoXoX@Xl.H q qXqXqXqXqXqXr t r t t t r r q q q qXqXqXqXqXqXqXqXqXqXqXqX",
"qXqXqXqXqXqXqXqXqXqXqXqXqXqXqXqXqXqXqXqXqXqXqXqXqX= f 5.0.t.8.0.3.p qXqXqXqXqXqXqXqX. . . . . . . X X qXqXqXqXqXqXqXqXqXqXqXqXqX",
"qXqXqXqXqXqXqXqXqXqXqXqXqXqXqXqXqXqXqXqXqXqXqXqXqXqXqXt w t t t w qXqXqXqXqXqXqXqXqXqXqXqXqXqXqXqXqXqXqXqXqXqXqXqXqXqXqXqXqXqXqX",
"qXqXqXqXqXqXqXqXqXqXqXqXqXqXqXqXqXqXqXqXqXqXqXqXqXqXqX. . $ X X qXqXqXqXqXqXqXqXqXqXqXqXqXqXqXqXqXqXqXqXqXqXqXqXqXqXqXqXqXqXqXqX",
"qXqXqXqXqXqXqXqXqXqXqXqXqXqXqXqXqXqXqXqXqXqXqXqXqXqXqXqXqXqXqXqXqXqXqXqXqXqXqXqXqXqXqXqXqXqXqXqXqXqXqXqXqXqXqXqXqXqXqXqXqXqXqXqX",
"qXqXqXqXqXqXqXqXqXqXqXqXqXqXqXqXqXqXqXqXqXqXqXqXqXqXqXqXqXqXqXqXqXqXqXqXqXqXqXqXqXqXqXqXqXqXqXqXqXqXqXqXqXqXqXqXqXqXqXqXqXqXqXqX",
"qXqXqXqXqXqXqXqXqXqXqXqXqXqXqXqXqXqXqXqXqXqXqXqXqXqXqXqXqXqXqXqXqXqXqXqXqXqXqXqXqXqXqXqXqXqXqXqXqXqXqXqXqXqXqXqXqXqXqXqXqXqXqXqX",
"qXqXqXqXqXqXqXqXqXqXqXqXqXqXqXqXqXqXqXqXqXqXqXqXqXqXqXqXqXqXqXqXqXqXqXqXqXqXqXqXqXqXqXqXqXqXqXqXqXqXqXqXqXqXqXqXqXqXqXqXqXqXqXqX",
"qXqXqXqXqXqXqXqXqXqXqXqXqXqXqXqXqXqXqXqXqXqXqXqXqXqXqXqXqXqXqXqXqXqXqXqXqXqXqXqXqXqXqXqXqXqXqXqXqXqXqXqXqXqXqXqXqXqXqXqXqXqXqXqX",
"qXqXqXqXqXqXqXqXqXqXqXqXqXqXqXqXqXqXqXqXqXqXqXqXqXqXqXqXqXqXqXqXqXqXqXqXqXqXqXqXqXqXqXqXqXqXqXqXqXqXqXqXqXqXqXqXqXqXqXqXqXqXqXqX"
};
