/* XPM */
static char *result[] = {
/* columns rows colors chars-per-pixel */
"64 64 200 2 ",
"   c #473924",
".  c #493B26",
"X  c #4B3D2A",
"o  c #463824",
"O  c #503F2A",
"+  c #493E30",
"@  c #4C402E",
"#  c #5B4727",
"$  c #544837",
"%  c #554A3A",
"&  c #634D2C",
"*  c #66502D",
"=  c #68522D",
"-  c #7A5C2B",
";  c #6A5738",
":  c #6F523A",
">  c #495A56",
",  c #595449",
"<  c #665B4D",
"1  c #655A4C",
"2  c #674D53",
"3  c #695E52",
"4  c #675D50",
"5  c #71554D",
"6  c #56635F",
"7  c #6D604F",
"8  c #79684A",
"9  c #6C6255",
"0  c #6E6459",
"q  c #6A675C",
"w  c #71665A",
"e  c #756A5D",
"r  c #786E5F",
"t  c #706350",
"y  c #786E60",
"u  c #63706D",
"i  c #7D746C",
"p  c #6D6E6A",
"a  c #AD791F",
"s  c #855F21",
"d  c #8A6428",
"f  c #896528",
"g  c #9B6E26",
"h  c #9F742A",
"j  c #A06F2A",
"k  c #A27224",
"l  c #A57729",
"z  c #A77A35",
"x  c #B77C3F",
"c  c #B67E2B",
"v  c #836F51",
"b  c #867356",
"n  c #9A6B43",
"m  c #B47F45",
"M  c #84796A",
"N  c #837B74",
"B  c #867E79",
"V  c #887F72",
"C  c #926C76",
"Z  c #A46D7C",
"A  c #B87973",
"S  c #BC882A",
"D  c #BC8D33",
"F  c #C18F30",
"G  c #C29134",
"H  c #C29339",
"J  c #A88548",
"K  c #BE8753",
"L  c #AD8A56",
"P  c #8B8274",
"I  c #8A827C",
"U  c #938A7D",
"Y  c #928166",
"T  c #B99D69",
"R  c #BEA16B",
"E  c #C59C51",
"W  c #CDA65C",
"Q  c #CAA357",
"!  c #C49C75",
"~  c #D3AF6A",
"^  c #8F7280",
"/  c #9F679D",
"(  c #BE7C9E",
")  c #A9768C",
"_  c #BC77A7",
"`  c #BD77BB",
"'  c #3B829D",
"]  c #418098",
"[  c #628F9F",
"{  c #519BB9",
"}  c #6A98A8",
"|  c #3599C4",
" . c #6BB5D5",
".. c #68ACC8",
"X. c #42BAED",
"o. c #74CDF3",
"O. c #79D8FF",
"+. c #948D82",
"@. c #988F82",
"#. c #918E92",
"$. c #9C9696",
"%. c #9D9798",
"&. c #9E999A",
"*. c #8F8A85",
"=. c #A29B9B",
"-. c #A9A39D",
";. c #AFA194",
":. c #B9AC9A",
">. c #9C9BA5",
",. c #A59FA1",
"<. c #9CAFBC",
"1. c #ACA6A4",
"2. c #A4A3A9",
"3. c #A5A0A2",
"4. c #B3ACA8",
"5. c #BAB5AD",
"6. c #AEACB3",
"7. c #B2AEB4",
"8. c #B4B1B7",
"9. c #BDB9B2",
"0. c #B6B3B9",
"q. c #BAB5BA",
"w. c #BEBABD",
"e. c #B1BDBF",
"r. c #D7BA87",
"t. c #C1BCBE",
"y. c #CDBFB0",
"u. c #C3B5A1",
"i. c #DEC592",
"p. c #D4CAB7",
"a. c #CFC2B2",
"s. c #E6D2AA",
"d. c #BEBBC3",
"f. c #CA8BC5",
"g. c #C1BDC3",
"h. c #CEB6CE",
"j. c #D1BDC9",
"k. c #E99AE9",
"l. c #EFA7EF",
"z. c #F0ABEF",
"x. c #EEBCF1",
"c. c #F1A6F2",
"v. c #91C2D7",
"b. c #ADC0C5",
"n. c #97DFFF",
"m. c #9DE3FF",
"M. c #C6C2C4",
"N. c #C9C5C5",
"B. c #C9C6CA",
"V. c #C9C6C9",
"C. c #D1CDCD",
"Z. c #D4D2CD",
"A. c #DAD5CF",
"S. c #CECDDA",
"D. c #CECCD2",
"F. c #D1CED1",
"G. c #D0CFDC",
"H. c #DDDAD6",
"J. c #DEDCDA",
"K. c #D3D3D5",
"L. c #E1DEDA",
"P. c #E2DCD3",
"I. c #E2D9CD",
"U. c #E2E0DD",
"Y. c #ECE2D4",
"T. c #F3EBD9",
"R. c #F1E5CF",
"E. c #CFDEE3",
"W. c #D8D7E0",
"Q. c #DBDAE5",
"!. c #DCDCEB",
"~. c #D2D2E0",
"^. c #E0DFEC",
"/. c #F5C2F5",
"(. c #EDDEF2",
"). c #F1C9F3",
"_. c #CDE5F3",
"`. c #D6EDF6",
"'. c #D4F2FE",
"]. c #DCF4FF",
"[. c #E3E3ED",
"{. c #EBEAEC",
"}. c #E8E7E6",
"|. c #F7EFE1",
" X c #F7F0E2",
".X c #FAF2E2",
"XX c #E6E6F2",
"oX c #ECECF4",
"OX c #E7EEFA",
"+X c #FAEAFB",
"@X c #F4E9F7",
"#X c #E0F5FD",
"$X c #F4F4F5",
"%X c #F8F7F6",
"&X c #FAF9F6",
"*X c #F4F4FA",
"=X c #F6FBFD",
"-X c #FEFEFF",
";X c #F9F5FB",
":X c None",
/* pixels */
":X:X:X:X:X:X:X:X:X:X:X:X:X:X:X:X:X:X:X:X:X:X:X:X:X:X:X:X:X:X:X:X:X:X:X:X:X:X:X:X:X:X:X:X:X:X:X:X:X:X:X:X:X:X:X:X:X:X:X:X:X:X:X:X",
":X:X:X:X:X:X:X:X:X:X:X:X:X:X:X:X:X:X:X:X:X:X:X:X:X:X:X:X:X:X:X:X:X:X:X:X:X:X:X:X:X:X:X:X:X:X:X:X:X:X:X:X:X:X:X:X:X:X:X:X:X:X:X:X",
":X:X:X:X:X:X:X:X:X:X:X:X:X:X:X:X:X:X:X:X:X:X:X:X:X:X:X:X:X:X:X:X:X:X:X:X:X:X:X:X:X:X:X:X:X:X:X:X:X:X:X:X:X:X:X:X:X:X:X:X:X:X:X:X",
":X:X:X:X:X:X:X:X:X:X:X:X:X:X:X:X:X:X:X:X:X:X:X:X:X:X:X:X:X:X:X:X:X:X:X:X:X:X:X:X:X:X:X:X:X:X:X:X:X:X:X:X:X:X:X:X:X:X:X:X:X:X:X:X",
":X:X:X:X:X:X:X:X:X:X:X:X:X:X:X:X:X:X:X:X:X:X:X:X:X:X:X:X:X:X:X:X:X:X:X:X:X:X:X:X:X:X:X:X:X:X:X:X:X:X:X:X:X:X:X:X:X:X:X:X:X:X:X:X",
":X:X:X:X:X:X:X:X:X:X:X:X:X:X:X:X:X:X:X:X:X:X:X:X:X:X:X:X:X:X:X:X:X:X:X:X:X:X:X:X:X:X:X:X:X:X:X:X:X:X:X:X:X:X:X:X:X:X:X:X:X:X:X:X",
":X:X:X:X:X:X:X:X:X:X:X:X:X:X:X:X:X:X:X:X:X:X:X:X:X:X:X:X:X:XX X X X :X:X:X:X:X:X+ O :X:X:X:X:X:X:X:X:X:X:X:X:X:X:X:X:X:X:X:X:X:X",
":X:X:X:X:X:X:X:X:X:X:X:X:X:X:X:X:X:X:X:X:X:X:X:X:X:X:X:X:X:X9 0 w w :X:X:X:X:X:X= = :X:X:X:X:X:X:X:X:X:X:X:X:X:X:X:X:X:X:X:X:X:X",
":X:X:X:X:X:X:X:X:X:X:X:X:X:X:X:X:X:X:X:X:X:X:X:X:X:X:X:X  4 %.q.t.1.0 X :X:X+ & d d = @ :X:X:X:X:X:X:X:X:X:X:X:X:X:X:X:X:X:X:X:X",
":X:X:X:X:X:X:X:X:X:X:X:X:X:X:X:X:X:X:X:X:X:X:X:X:X:X:X:X4 I d.XX*XN.e X :X:X& - j g = + :X:X:X:X:X:X:X:X:X:X:X:X:X:X:X:X:X:X:X:X",
":X:X:X:X:X:X:X:X:X:X:X:X:X:X:X:X:X:X:X:X:X:X:X:X:X:X  4 $.d.Q.oX-XC.y X . & d k a g = X :X:X:X:X:X:X:X:X:X:X:X:X:X:X:X:X:X:X:X:X",
":X:X:X:X:X:X:X:X:X:X:X:X:X:X:X:X:X:X:X:X:X:X:X:X:X:X4 I d.[.oX;X+Xj.e X # s k c x n : @ :X:X:X:X:X:X:X:X:X:X:X:X:X:X:X:X:X:X:X:X",
":X:X:X:X:X:X:X:X:X:X:X:X:X:X:X:X:X:X:X:X:X:X:X:XX 3 %.d.J.XX=X+X/.f.3 # s j a x A ^ 2 O :X:X:X:X:X:X:X:X:X:X:X:X:X:X:X:X:X:X:X:X",
":X:X:X:X:X:X:X:X:X:X:X:X:X:X:X:X:X:X:X:X:X:X:X:X. 0 8.XXoX@X@X).c.f.C 8 d j z A _ / 2 + :X:X:X:X:X:X:X:X:X:X:X:X:X:X:X:X:X:X:X:X",
":X:X:X:X:X:X:X:X:X:X:X:X:X:X:X:X:X:X:X:X:X:XX   . 0 w.oX;X+Xx.c.k.k.h.-.8 5 Z _ ` / 2 + :X:X:X:X:X:X:X:X:X:X:X:X:X:X:X:X:X:X:X:X",
":X:X:X:X:X:X:X:X:X:X:X:X:X:X:X:X:X:X:X:X:X:X9 9 0 *.F.;X-X+Xz.k.c.x.@XF.#.M ) ( ( ) d O :X:X:X:X:X:X:X:X:X:X:X:X:X:X:X:X:X:X:X:X",
":X:X:X:X:X:X:X:X:X:X:X:X:X:X:X:X:X:X:X:X  4 %.0.w.F.{.-X-X+Xl.k.x.XX;X$XL.a.! K E J h f # @ :X:X:X:X:X:X:X:X:X:X:X:X:X:X:X:X:X:X",
":X:X:X:X:X:X:X:X:X:X:X:X:X:X:X:X:X:X:X:X9 I M.XXoX*X-X-X-X+X/.x.(.$X&X-X-X.Xi.Q H S S l - * :X:X:X:X:X:X:X:X:X:X:X:X:X:X:X:X:X:X",
":X:X:X:X:X:X:X:X:X:X:X:X:X:X:X:X:X:X  9 -.F.{.=X-X-X-X-X-X;X+X+X;X&X-X-X-X-X Xs.Q D D D D f * @ :X:X:X:X:X:X:X:X:X:X:X:X:X:X:X:X",
":X:X:X:X:X:X:X:X:X:X:X:X:X:X:X:X:X:X4 I F.=X-X-X-X-X-X-X-X-X-X-X-X-X-X$XH.H.$X|.r.W E D D z & @ :X:X:X:X:X:X:X:X:X:X:X:X:X:X:X:X",
":X:X:X:X:X:X:X:X:X:X:X:X:X:X:X:XX 3 %.M.{.-X-X-X-X-X-X-X-X-X-X-X-X-X-XL.U +.J.-X.Xs.W H H S $ @ + @ :X:X:X:X:X:X:X:X:X:X:X:X:X:X",
":X:X:X:X:X:X:X:X:X:X:X:X:X:X:X:XX w 0.XX;X-X-X-X-X-X-X-X-X-X-X-X-X$XL.5.P +.H.-X-X|.r.~ ~ R Y 9 % @ :X:X:X:X:X:X:X:X:X:X:X:X:X:X",
":X:X:X:X:X:X:X:X:X:X:X:X:X:X:X:XX e g.*X-X-X-X-X-X-X-X-X-X-X-X-X-XL.@.P 5.L.%X-X-X&X|.R.R.Y.H.1.w X :X:X:X:X:X:X:X:X:X:X:X:X:X:X",
":X:X:X:X:X:X:X:X:X:X:X:X:X:X:X:XX 9 :.P.&X$XJ.A.}.%X-X-X-X-X-X-X-XK.p u d.#X=X-X-X-X-X-X-X=X].d.e X :X:X:X:X:X:X:X:X:X:X:X:X:X:X",
":X:X:X:X:X:X:X:X:X:X:X:X:X:X:X:XX ; J r.|.U.+.P 5.U.%X-X-X-X-X-X-XE.} ] { v.{.-X-X-X-X-X-X`.v.[ , @ :X:X:X:X:X:X:X:X:X:X:X:X:X:X",
":X:X:X:X:X:X:X:X:X:X:X:X:X:X:X:X@ = l Q s.p.U P 9.U.%X-X-X-X-X-X-X`. .| |  ._.-X-X-X-X-X-X`. .' > @ :X:X:X:X:X:X:X:X:X:X:X:X:X:X",
":X:X:X:X:X:X:X:X:X:X:X:X:X:X:X:X@ = j H Q r.p.H.{.$X&X-X-X-X-X-X-X'.o.X.X.o.`.-X-X-X-X-X-X`.o.{ > @ :X:X:X:X:X:X:X:X:X:X:X:X:X:X",
":X:X:X:X:X:X:X:X:X:X:X:X:X:X:X:X@ = h F F Q a.P.{.$X-X-X-X-X-X-X-X].m.O.O.m.#X-X-X%XH.H.$X].m...6 @ :X:X:X:X:X:X:X:X:X:X:X:X:X:X",
":X:X:X:X:X:X:X:X:X:X:X:X:X:X:X:X@ * g S G J b U y.L.%X-X-X-X-X-X-X=X#X'.'.#X=X-X-XL.+.U F.OX_.<.9 @ :X:X:X:X:X:X:X:X:X:X:X:X:X:X",
":X:X:X:X:X:X:X:X:X:X:X:X:X:X:X:X@ & d z Q T M I 9.U.$X-X-X-X-X-X-X-X-X-X-X-X-X=X{.b.P N 8.B.d.=.9 X :X:X:X:X:X:X:X:X:X:X:X:X:X:X",
":X:X:X:X:X:X:X:X:X:X:X:X:X:X:X:X:X:X& v u.I.A.H.}.$X&X-X-X-X-X-X-X-X-X-X-X-X-X{.d.>.6.8.2.#.i 9 :X:X:X:X:X:X:X:X:X:X:X:X:X:X:X:X",
":X:X:X:X:X:X:X:X:X:X:X:X:X:X:X:X:X:X. q 1.M.F.J.oX-X-X-X-X-X=X-X-X-X=X-X-X=X-X}.6.>.6.2.^ q % . :X:X:X:X:X:X:X:X:X:X:X:X:X:X:X:X",
":X:X:X:X:X:X:X:X:X:X:X:X:X:X:X:X:X:X:X:X0 e y +.B.oX@X$XoX$X$X$XoX*X$X$X$X*X*X[.G.6.N 3 , , :X:X:X:X:X:X:X:X:X:X:X:X:X:X:X:X:X:X",
":X:X:X:X:X:X:X:X:X:X:X:X:X:X:X:X:X:X:X:XX X   4 %.0.w.t.t.t.w.t.t.w.t.t.w.t.t.w.q.&.3 . X X :X:X:X:X:X:X:X:X:X:X:X:X:X:X:X:X:X:X",
":X:X:X:X:X:X:X:X:X:X:X:X:X:X:X:X:X:X:X:X:X:X:X:X9 q w 0 w 0 0 0 0 0 0 0 w w w w w 0 :X:X:X:X:X:X:X:X:X:X:X:X:X:X:X:X:X:X:X:X:X:X",
":X:X:X:X:X:X:X:X:X:X:X:X:X:X:X:X:X:X:X:X:X:X:X:X. $ < w e r r r r e w 0 9 9 3 1 $ X :X:X:X:X:X:X:X:X:X:X:X:X:X:X:X:X:X:X:X:X:X:X",
":X:X:X:X:X:X:X:X:X:X:X:X:X:X:X:X:X:XX X :X:X:X:XX < =.N.C.Z.Z.Z.Z.V.M.q.7.7.7.$.< . :X:X:X:X:X:X:X:X:X:X:X:X:X:X:X:X:X:X:X:X:X:X",
":X:X:X:X:X:X:X:X:X:X:X:X:X:X:X:X:X:Xw w :X:X:X:XX e N.-X-X&XL.L.&X-X;XoX[.^.!.7.0 X :X:X:X:X:X:X:X:X:X:X:X:X:X:X:X:X:X:X:X:X:X:X",
":X:X:X:X:X:X:X:X:X:X:X:X:X:X:X:XX w 1.1.w X :X:X. r C.-X-XJ.+.@.U.-X-X-X;X$X^.7.0 X :X:X:X:X:X:X:X:X:X:X:X:X:X:X:X:X:X:X:X:X:X:X",
":X:X:X:X:X:X:X:X:X:X:X:X:X:X:X:XX y N.N.r X :X:X@ r V.-X-XL.U N 5.L.%X-X-X;X^.7.0 X :X:X:X:X:X:X:X:X:X:X:X:X:X:X:X:X:X:X:X:X:X:X",
":X:X:X:X:X:X:X:X:X:X:X:X:X:X:X:XX e M.M.e . :X:XX e N.-X-X%XL.5.P +.U.-X-X;X[.7.9 X :X:X:X:X:X:X:X:X:X:X:X:X:X:X:X:X:X:X:X:X:X:X",
":X:X:X:X:X:X:X:X:X:X:X:X:X:X:X:XX e g.g.e . :X:XX 3 =.C.{.-X-XL.U P 5.U.%X=X[.7.0 X :X:X:X:X:X:X:X:X:X:X:X:X:X:X:X:X:X:X:X:X:X:X",
":X:X:X:X:X:X:X:X:X:X:X:X:X:X:X:XX w q.q.w . :X:X@ $ 1 *.F.-X-X%XL.5.P @.J.=XXX7.0 X :X:X:X:X:X:X:X:X:X:X:X:X:X:X:X:X:X:X:X:X:X:X",
":X:X:X:X:X:X:X:X:X:X:X:X:X:X:X:XX q 8.g.I 3 :X:XX $ 2 M 1.F.oX-X-XZ.w 9 N.XXB.$.9 X :X:X:X:X:X:X:X:X:X:X:X:X:X:X:X:X:X:X:X:X:X:X",
":X:X:X:X:X:X:X:X:X:X:X:X:X:X:X:X+ q 7.G.d.&.3 X X 3 $.>.i *.Z.;X=XN.9 9 q.M.I < :X:X:X:X:X:X:X:X:X:X:X:X:X:X:X:X:X:X:X:X:X:X:X:X",
":X:X:X:X:X:X:X:X:X:X:X:X:X:X:X:XX 3 %.d.~.w.b # X y 0.d.N M 1.b.M.1.N I d.d.B < :X:X:X:X:X:X:X:X:X:X:X:X:X:X:X:X:X:X:X:X:X:X:X:X",
":X:X:X:X:X:X:X:X:X:X:X:X:X:X:X:X:X:X3 *.d.a.L s & 3 8.G.d.=.i 9 9 M 3.g.S.S.d.$.4 . :X:X:X:X:X:X:X:X:X:X:X:X:X:X:X:X:X:X:X:X:X:X",
":X:X:X:X:X:X:X:X:X:X:X:X:X:X:X:X:X:Xo 3 >.-.m s # 3 7.!.!.g.I q 9 N 3.8.8.d.S.d.B 4 :X:X:X:X:X:X:X:X:X:X:X:X:X:X:X:X:X:X:X:X:X:X",
":X:X:X:X:X:X:X:X:X:X:X:X:X:X:X:X:X:X:X:X9 9 ; # @ 9 7.!.[.Q.V.a.M.4.N 9 9 B d.G.d.%.9 X :X:X:X:X:X:X:X:X:X:X:X:X:X:X:X:X:X:X:X:X",
":X:X:X:X:X:X:X:X:X:X:X:X:X:X:X:X:X:X:X:XX X X % < I d.Q.[.oX@X[.F.1.0 o   0 7.!.!.7.w X :X:X:X:X:X:X:X:X:X:X:X:X:X:X:X:X:X:X:X:X",
":X:X:X:X:X:X:X:X:X:X:X:X:X:X:X:X:X:X:X:X:X:XX < $.d.S.W.[.oX*XC.+.0 :X:X  0 7.!.!.8.w X :X:X:X:X:X:X:X:X:X:X:X:X:X:X:X:X:X:X:X:X",
":X:X:X:X:X:X:X:X:X:X:X:X:X:X:X:X:X:X:X:X:X:XX 9 &.d.S.Q.[.Q.B.1.3 o :X:XX 9 &.8.8.=.9 X :X:X:X:X:X:X:X:X:X:X:X:X:X:X:X:X:X:X:X:X",
":X:X:X:X:X:X:X:X:X:X:X:X:X:X:X:X:X:X:X:X:X:X:X:X3 I d.!.!.g.I 9 :X:X:X:X:X:X9 0 0 0 :X:X:X:X:X:X:X:X:X:X:X:X:X:X:X:X:X:X:X:X:X:X",
":X:X:X:X:X:X:X:X:X:X:X:X:X:X:X:X:X:X:X:X:X:X:X:X. 3 %.8.8.$.4   :X:X:X:X:X:XX X X X :X:X:X:X:X:X:X:X:X:X:X:X:X:X:X:X:X:X:X:X:X:X",
":X:X:X:X:X:X:X:X:X:X:X:X:X:X:X:X:X:X:X:X:X:X:X:X:X:X9 0 q 9 :X:X:X:X:X:X:X:X:X:X:X:X:X:X:X:X:X:X:X:X:X:X:X:X:X:X:X:X:X:X:X:X:X:X",
":X:X:X:X:X:X:X:X:X:X:X:X:X:X:X:X:X:X:X:X:X:X:X:X:X:XX X X X :X:X:X:X:X:X:X:X:X:X:X:X:X:X:X:X:X:X:X:X:X:X:X:X:X:X:X:X:X:X:X:X:X:X",
":X:X:X:X:X:X:X:X:X:X:X:X:X:X:X:X:X:X:X:X:X:X:X:X:X:X:X:X:X:X:X:X:X:X:X:X:X:X:X:X:X:X:X:X:X:X:X:X:X:X:X:X:X:X:X:X:X:X:X:X:X:X:X:X",
":X:X:X:X:X:X:X:X:X:X:X:X:X:X:X:X:X:X:X:X:X:X:X:X:X:X:X:X:X:X:X:X:X:X:X:X:X:X:X:X:X:X:X:X:X:X:X:X:X:X:X:X:X:X:X:X:X:X:X:X:X:X:X:X",
":X:X:X:X:X:X:X:X:X:X:X:X:X:X:X:X:X:X:X:X:X:X:X:X:X:X:X:X:X:X:X:X:X:X:X:X:X:X:X:X:X:X:X:X:X:X:X:X:X:X:X:X:X:X:X:X:X:X:X:X:X:X:X:X",
":X:X:X:X:X:X:X:X:X:X:X:X:X:X:X:X:X:X:X:X:X:X:X:X:X:X:X:X:X:X:X:X:X:X:X:X:X:X:X:X:X:X:X:X:X:X:X:X:X:X:X:X:X:X:X:X:X:X:X:X:X:X:X:X",
":X:X:X:X:X:X:X:X:X:X:X:X:X:X:X:X:X:X:X:X:X:X:X:X:X:X:X:X:X:X:X:X:X:X:X:X:X:X:X:X:X:X:X:X:X:X:X:X:X:X:X:X:X:X:X:X:X:X:X:X:X:X:X:X",
":X:X:X:X:X:X:X:X:X:X:X:X:X:X:X:X:X:X:X:X:X:X:X:X:X:X:X:X:X:X:X:X:X:X:X:X:X:X:X:X:X:X:X:X:X:X:X:X:X:X:X:X:X:X:X:X:X:X:X:X:X:X:X:X",
":X:X:X:X:X:X:X:X:X:X:X:X:X:X:X:X:X:X:X:X:X:X:X:X:X:X:X:X:X:X:X:X:X:X:X:X:X:X:X:X:X:X:X:X:X:X:X:X:X:X:X:X:X:X:X:X:X:X:X:X:X:X:X:X",
":X:X:X:X:X:X:X:X:X:X:X:X:X:X:X:X:X:X:X:X:X:X:X:X:X:X:X:X:X:X:X:X:X:X:X:X:X:X:X:X:X:X:X:X:X:X:X:X:X:X:X:X:X:X:X:X:X:X:X:X:X:X:X:X"
};
