/* XPM */
static char *result[] = {
/* columns rows colors chars-per-pixel */
"64 64 170 2 ",
"   c #473924",
".  c #493B26",
"X  c #4B3E2A",
"o  c #453722",
"O  c #4A3F30",
"+  c #4E412F",
"@  c #4E4130",
"#  c #524533",
"$  c #634D2B",
"%  c #66512E",
"&  c #7B5E2C",
"*  c #735A37",
"=  c #7C612E",
"-  c #605446",
";  c #625649",
":  c #655A4D",
">  c #695E52",
",  c #675D51",
"<  c #6C6155",
"1  c #6E6559",
"2  c #71665A",
"3  c #73695C",
"4  c #706352",
"5  c #786E60",
"6  c #63706D",
"7  c #7F766F",
"8  c #6A7471",
"9  c #717976",
"0  c #886325",
"q  c #886328",
"w  c #966E29",
"e  c #9D7328",
"r  c #99793F",
"t  c #AB7F2F",
"y  c #A47728",
"u  c #A37A31",
"i  c #826D4E",
"p  c #826F52",
"a  c #897553",
"s  c #AD7A4B",
"d  c #877F7A",
"f  c #847B73",
"g  c #8A7A61",
"h  c #BA8729",
"j  c #AB8436",
"k  c #BA8C32",
"l  c #BF8B37",
"z  c #BE9037",
"x  c #C18B3C",
"c  c #C19235",
"v  c #C39639",
"b  c #C6993D",
"n  c #B08A49",
"m  c #8B837D",
"M  c #8A8176",
"N  c #BA9E69",
"B  c #C49646",
"V  c #C78C56",
"C  c #CA945B",
"Z  c #C68B4E",
"A  c #C9A25A",
"S  c #CF986C",
"D  c #D1AD65",
"F  c #D2B06C",
"G  c #42819A",
"H  c #5B9BB7",
"J  c #6B99AA",
"K  c #3599C4",
"L  c #6BB5D4",
"P  c #42BAED",
"I  c #74CCF2",
"U  c #79D8FF",
"Y  c #8E8780",
"T  c #948C81",
"R  c #968E8A",
"E  c #969090",
"W  c #9C9696",
"Q  c #9D9798",
"!  c #9E9899",
"~  c #999289",
"^  c #A19B9D",
"/  c #A8A29F",
"(  c #BCAE9C",
")  c #A49EA1",
"_  c #A1A0A7",
"`  c #ABA5A3",
"'  c #ABA8AE",
"]  c #BCB4AB",
"[  c #ADABB3",
"{  c #B1ADB3",
"}  c #B4B0B6",
"|  c #B6B3B9",
" . c #B8B5BA",
".. c #BEBABC",
"X. c #D28E84",
"o. c #DA939F",
"O. c #CF8997",
"+. c #D5B886",
"@. c #DB94A2",
"#. c #C1BDBF",
"$. c #DAC090",
"%. c #CFC1A7",
"&. c #D9C2A0",
"*. c #E5D0A9",
"=. c #BEBBC3",
"-. c #E393C6",
";. c #E593D2",
":. c #C2AFC5",
">. c #C2BEC2",
",. c #C7BCC9",
"<. c #EB94EC",
"1. c #EA9FEB",
"2. c #DEACE0",
"3. c #EBA3ED",
"4. c #F2ACF2",
"5. c #EFBCF0",
"6. c #F0BDF2",
"7. c #91C1D6",
"8. c #AEC0C6",
"9. c #9DE3FF",
"0. c #C4C1C4",
"q. c #C6C4C9",
"w. c #CDCACD",
"e. c #CAC6C7",
"r. c #D1CDC9",
"t. c #D6D3CD",
"y. c #CECCD7",
"u. c #CECDDA",
"i. c #D2CFD1",
"p. c #D2D2D3",
"a. c #DCDAD6",
"s. c #D2D1DF",
"d. c #DEDCD9",
"f. c #E3DFDA",
"g. c #E8DFD4",
"h. c #E7E1D9",
"j. c #F3E9D8",
"k. c #CFDEE3",
"l. c #D6D5E0",
"z. c #D8D7E0",
"x. c #DBD9E2",
"c. c #DEDEEC",
"v. c #D0DFE6",
"b. c #E5C6ED",
"n. c #E0DFEA",
"m. c #EDDDF3",
"M. c #EAD3F2",
"N. c #F0C3F4",
"B. c #CFE7F1",
"V. c #D3EFFB",
"C. c #D6EAF2",
"Z. c #D5F3FF",
"A. c #E2E2ED",
"S. c #EBEAEC",
"D. c #E4E4E7",
"F. c #EFF0EF",
"G. c #E6E6F1",
"H. c #EAE7F2",
"J. c #ECEBF4",
"K. c #F0EFF1",
"L. c #F7E6F9",
"P. c #FBE9FC",
"I. c #FCE6FC",
"U. c #E0F5FE",
"Y. c #F3F3F5",
"T. c #F5F5FA",
"R. c #F6FCFF",
"E. c #FEFEFF",
"W. c #FAF6F9",
"Q. c None",
/* pixels */
"Q.Q.Q.Q.Q.Q.Q.Q.Q.Q.Q.Q.Q.Q.Q.Q.Q.Q.Q.Q.Q.Q.Q.Q.Q.Q.Q.Q.Q.Q.Q.Q.Q.Q.Q.Q.Q.Q.Q.Q.Q.Q.Q.Q.Q.Q.Q.Q.Q.Q.Q.Q.Q.Q.Q.Q.Q.Q.Q.Q.Q.Q.Q.Q.",
"Q.Q.Q.Q.Q.Q.Q.Q.Q.Q.Q.Q.Q.Q.Q.Q.Q.Q.Q.Q.Q.Q.Q.Q.Q.Q.Q.Q.Q.Q.Q.Q.Q.Q.Q.Q.Q.Q.Q.Q.Q.Q.Q.Q.Q.Q.Q.Q.Q.Q.Q.Q.Q.Q.Q.Q.Q.Q.Q.Q.Q.Q.Q.Q.",
"Q.Q.Q.Q.Q.Q.Q.Q.Q.Q.Q.Q.Q.Q.Q.Q.Q.Q.Q.Q.Q.Q.Q.Q.Q.Q.Q.Q.Q.Q.Q.Q.Q.Q.Q.Q.Q.Q.Q.Q.Q.Q.Q.Q.Q.Q.Q.Q.Q.Q.Q.Q.Q.Q.Q.Q.Q.Q.Q.Q.Q.Q.Q.Q.",
"Q.Q.Q.Q.Q.Q.Q.Q.Q.Q.Q.Q.Q.Q.Q.Q.Q.Q.Q.Q.Q.Q.Q.Q.Q.Q.Q.Q.Q.Q.Q.Q.Q.Q.Q.Q.Q.Q.Q.Q.Q.Q.Q.Q.Q.Q.Q.Q.Q.Q.Q.Q.Q.Q.Q.Q.Q.Q.Q.Q.Q.Q.Q.Q.",
"Q.Q.Q.Q.Q.Q.Q.Q.Q.Q.Q.Q.Q.Q.Q.Q.Q.Q.Q.Q.Q.Q.Q.Q.Q.Q.Q.Q.Q.Q.Q.Q.Q.Q.Q.Q.Q.Q.Q.Q.Q.Q.Q.Q.Q.Q.Q.Q.Q.Q.Q.Q.Q.Q.Q.Q.Q.Q.Q.Q.Q.Q.Q.Q.",
"Q.Q.Q.Q.Q.Q.Q.Q.Q.Q.Q.Q.Q.Q.Q.Q.Q.Q.Q.Q.Q.Q.Q.Q.Q.Q.Q.Q.Q.Q.Q.Q.Q.Q.Q.Q.Q.Q.Q.Q.Q.Q.Q.Q.Q.Q.Q.Q.Q.Q.Q.Q.Q.Q.Q.Q.Q.Q.Q.Q.Q.Q.Q.Q.",
"Q.Q.Q.Q.Q.Q.Q.Q.Q.Q.Q.Q.Q.Q.Q.Q.Q.Q.Q.Q.Q.Q.Q.Q.Q.Q.Q.Q.Q.Q.Q.Q.Q.Q.Q.Q.Q.Q.Q.Q.Q.Q.Q.Q.Q.Q.Q.Q.Q.Q.Q.Q.Q.Q.Q.Q.Q.Q.Q.Q.Q.Q.Q.Q.",
"Q.Q.Q.Q.Q.Q.Q.Q.Q.Q.Q.Q.Q.Q.Q.Q.Q.Q.Q.Q.Q.Q.Q.Q.Q.Q.Q.Q.Q.Q.Q.Q.Q.Q.Q.Q.Q.Q.Q.Q.Q.Q.Q.Q.Q.Q.Q.Q.Q.Q.Q.Q.Q.Q.Q.Q.Q.Q.Q.Q.Q.Q.Q.Q.",
"Q.Q.Q.Q.Q.Q.Q.Q.Q.Q.Q.Q.Q.Q.Q.Q.Q.Q.Q.Q.Q.Q.X X Q.Q.Q.Q.Q.Q.Q.Q.Q.Q.Q.Q.Q.Q.@ O Q.Q.Q.Q.Q.Q.Q.Q.Q.Q.Q.Q.Q.Q.Q.Q.Q.Q.Q.Q.Q.Q.Q.Q.",
"Q.Q.Q.Q.Q.Q.Q.Q.Q.Q.Q.Q.Q.Q.Q.Q.Q.Q.Q.Q.Q.Q.4 3 Q.Q.Q.Q.Q.Q.Q.Q.Q.Q.Q.Q.Q.Q.% % Q.Q.Q.Q.Q.Q.Q.Q.Q.Q.Q.Q.Q.Q.Q.Q.Q.Q.Q.Q.Q.Q.Q.Q.",
"Q.Q.Q.Q.Q.Q.Q.Q.Q.Q.Q.Q.Q.Q.Q.Q.Q.Q.Q.Q.  2 ` ` 1   Q.Q.Q.Q.Q.Q.Q.Q.Q.Q.O % w w % O Q.Q.Q.Q.Q.Q.Q.Q.Q.Q.Q.Q.Q.Q.Q.Q.Q.Q.Q.Q.Q.Q.",
"Q.Q.Q.Q.Q.Q.Q.Q.Q.Q.Q.Q.Q.Q.Q.Q.Q.Q.Q.Q.> m p.p.Y > Q.Q.Q.Q.Q.Q.Q.Q.Q.Q.$ = u t = $ Q.Q.Q.Q.Q.Q.Q.Q.Q.Q.Q.Q.Q.Q.Q.Q.Q.Q.Q.Q.Q.Q.",
"Q.Q.Q.Q.Q.Q.Q.Q.Q.Q.Q.Q.Q.Q.Q.Q.Q.Q.X > Q q.S.J.q.W < X Q.Q.Q.Q.Q.Q.@ $ q y k k u q % O Q.Q.Q.Q.Q.Q.Q.Q.Q.Q.Q.Q.Q.Q.Q.Q.Q.Q.Q.Q.",
"Q.Q.Q.Q.Q.Q.Q.Q.Q.Q.Q.Q.Q.Q.Q.Q.Q.Q.. 2 | G.L.P.H. .1 . Q.Q.Q.Q.Q.Q.O % e x C C x w % O Q.Q.Q.Q.Q.Q.Q.Q.Q.Q.Q.Q.Q.Q.Q.Q.Q.Q.Q.Q.",
"Q.Q.Q.Q.Q.Q.Q.Q.Q.Q.Q.Q.Q.Q.Q.Q.Q.Q.. 2 ..m.6.6.P.e.3   Q.Q.Q.Q.Q.Q.X % u C @.@.Z e % O Q.Q.Q.Q.Q.Q.Q.Q.Q.Q.Q.Q.Q.Q.Q.Q.Q.Q.Q.Q.",
"Q.Q.Q.Q.Q.Q.Q.Q.Q.Q.Q.Q.Q.Q.Q.Q.Q.Q.> d ,.N.3.4.P.d.T , Q.Q.Q.Q.Q.Q.$ = j S ;.;.S s q # Q.Q.Q.Q.Q.Q.Q.Q.Q.Q.Q.Q.Q.Q.Q.Q.Q.Q.Q.Q.",
"Q.Q.Q.Q.Q.Q.Q.Q.Q.Q.Q.Q.Q.Q.Q.Q.X < ! :.2.3.<.4.I.F.e.Q ,   . X . $ 0 t k S -.<.;.O.s 0 $ @ Q.Q.Q.Q.Q.Q.Q.Q.Q.Q.Q.Q.Q.Q.Q.Q.Q.Q.",
"Q.Q.Q.Q.Q.Q.Q.Q.Q.Q.Q.Q.Q.Q.Q.Q.. 1  .b.3.<.3.N.P.R.G.>.m 2 2 1 3 i u h z C o.;.<.-.V e % X Q.Q.Q.Q.Q.Q.Q.Q.Q.Q.Q.Q.Q.Q.Q.Q.Q.Q.",
"Q.Q.Q.Q.Q.Q.Q.Q.Q.Q.Q.Q.Q.Q.Q.Q.. 1 #.M.3.1.b.m.W.R.J.x.e.=...=.#.( n c z B Z X.;.-.V e % O Q.Q.Q.Q.Q.Q.Q.Q.Q.Q.Q.Q.Q.Q.Q.Q.Q.Q.",
"Q.Q.Q.Q.Q.Q.Q.Q.Q.Q.Q.Q.Q.Q.Q.Q.> m e.m.5.5.m.Y.E.E.Y.K.Y.Y.Y.T.Y.h.F A B v z B o.o.Z y & $ Q.Q.Q.Q.Q.Q.Q.Q.Q.Q.Q.Q.Q.Q.Q.Q.Q.Q.",
"Q.Q.Q.Q.Q.Q.Q.Q.Q.Q.Q.Q.Q.Q.X > Q >.x.J.L.L.W.E.E.E.E.W.E.R.E.E.E.W.j.*.A v v b C C x h y 0 % + Q.Q.Q.Q.Q.Q.Q.Q.Q.Q.Q.Q.Q.Q.Q.Q.",
"Q.Q.Q.Q.Q.Q.Q.Q.Q.Q.Q.Q.Q.Q.X 2 | A.J.Y.E.E.E.Y.a.h.Y.E.E.E.E.E.E.E.E.h.N j z b x z k l n s * + Q.Q.Q.Q.Q.Q.Q.Q.Q.Q.Q.Q.Q.Q.Q.Q.",
"Q.Q.Q.Q.Q.Q.Q.Q.Q.Q.Q.Q.Q.Q.X 2 ..J.T.W.E.E.E.f.T m a.E.E.E.E.E.E.E.E.t.M 0 j b v c z A &.( < X Q.Q.Q.Q.Q.Q.Q.Q.Q.Q.Q.Q.Q.Q.Q.Q.",
"Q.Q.Q.Q.Q.Q.Q.Q.Q.Q.Q.Q.Q.Q.X 3 #.T.E.E.E.Y.f.] M T a.E.E.E.E.E.E.E.E.f.m 3 s n A F D $.f.0.5 . Q.Q.Q.Q.Q.Q.Q.Q.Q.Q.Q.Q.Q.Q.Q.Q.",
"Q.Q.Q.Q.Q.Q.Q.Q.Q.Q.Q.Q.Q.Q.X 3 #.T.R.E.E.a.~ M #.h.W.E.E.E.E.E.E.E.E.W.h.] 4 a %.j.j.j.S.0.3 X Q.Q.Q.Q.Q.Q.Q.Q.Q.Q.Q.Q.Q.Q.Q.Q.",
"Q.Q.Q.Q.Q.Q.Q.Q.Q.Q.Q.Q.Q.Q.X 3 #.K.E.E.E.p.8 6 | C.E.E.E.E.E.E.E.E.E.R.Z.=.8 9 p.E.E.E.T.#.3 X Q.Q.Q.Q.Q.Q.Q.Q.Q.Q.Q.Q.Q.Q.Q.Q.",
"Q.Q.Q.Q.Q.Q.Q.Q.Q.Q.Q.Q.@ X X 2 >.Y.E.E.E.k.J G H 7.C.E.E.E.E.E.E.E.E.C.7.H G J v.E.E.E.J.#.3 X O # Q.Q.Q.Q.Q.Q.Q.Q.Q.Q.Q.Q.Q.Q.",
"Q.Q.Q.Q.Q.Q.Q.Q.Q.Q.Q.Q.# X X 3 >.Y.R.E.E.C.L K K L B.E.E.E.E.E.E.E.E.C.L K K L B.E.E.E.T.>.3 X X # Q.Q.Q.Q.Q.Q.Q.Q.Q.Q.Q.Q.Q.Q.",
"Q.Q.Q.Q.Q.Q.Q.Q.Q.Q.Q.Q.Q.Q.X 3 #.Y.E.E.E.V.I P P I V.E.E.E.E.E.E.E.E.Z.I P P I V.E.E.R.K.#.3 X Q.Q.Q.Q.Q.Q.Q.Q.Q.Q.Q.Q.Q.Q.Q.Q.",
"Q.Q.Q.Q.Q.Q.Q.Q.Q.Q.Q.Q.Q.Q.X 3 ..J.T.E.E.Z.9.U U 9.U.E.E.Y.a.h.Y.E.E.U.9.U U 9.U.E.E.W.J.#.3 X Q.Q.Q.Q.Q.Q.Q.Q.Q.Q.Q.Q.Q.Q.Q.Q.",
"Q.Q.Q.Q.Q.Q.Q.Q.Q.Q.Q.Q.+ X X 2  .G.J.Y.E.R.U.Z.Z.Z.E.E.E.a.m m a.E.E.R.U.Z.Z.U.R.E.Y.J.G. .2 X X @ Q.Q.Q.Q.Q.Q.Q.Q.Q.Q.Q.Q.Q.Q.",
"Q.Q.Q.Q.Q.Q.Q.Q.Q.Q.Q.Q.@ + + < Q :.l.J.W.E.E.E.E.E.E.W.S.#.M M #.S.W.E.E.E.E.E.E.T.H.l.>.Q 4 + X # Q.Q.Q.Q.Q.Q.Q.Q.Q.Q.Q.Q.Q.Q.",
"Q.Q.Q.Q.Q.Q.Q.Q.Q.Q.Q.Q.Q.Q.Q.Q.> d =.G.Y.W.E.E.E.E.E.S. ._ [ [ _  .S.E.E.E.E.E.Y.J.A.>.d > Q.Q.Q.Q.Q.Q.Q.Q.Q.Q.Q.Q.Q.Q.Q.Q.Q.Q.",
"Q.Q.Q.Q.Q.Q.Q.Q.Q.Q.Q.Q.Q.Q.Q.Q.  > Q |  .w.S.T.T.T.E.D.| [ y.u.[ } D.E.R.T.T.S.y... .W >   Q.Q.Q.Q.Q.Q.Q.Q.Q.Q.Q.Q.Q.Q.Q.Q.Q.Q.",
"Q.Q.Q.Q.Q.Q.Q.Q.Q.Q.Q.Q.Q.Q.Q.Q.Q.Q.> 1 1 Y q.A.A.G.J.J.l.s.D.A.l.v.G.J.G.G.A.e.Y 2 1 < Q.Q.Q.Q.Q.Q.Q.Q.Q.Q.Q.Q.Q.Q.Q.Q.Q.Q.Q.Q.",
"Q.Q.Q.Q.Q.Q.Q.Q.Q.Q.Q.Q.Q.Q.Q.Q.Q.Q.X . . ; E | { | >.8.%.0.#.#.0.%.=.=.{ { { E ;   . X Q.Q.Q.Q.Q.Q.Q.Q.Q.Q.Q.Q.Q.Q.Q.Q.Q.Q.Q.Q.",
"Q.Q.Q.Q.Q.Q.Q.Q.Q.Q.Q.Q.Q.Q.Q.Q.Q.Q.Q.Q.. # ; < > < 1 1 2 3 1 1 3 3 2 2 < > < ; #   Q.Q.Q.Q.Q.Q.Q.Q.Q.Q.Q.Q.Q.Q.Q.Q.Q.Q.Q.Q.Q.Q.",
"Q.Q.Q.Q.Q.Q.Q.Q.Q.Q.Q.Q.Q.Q.Q.Q.Q.Q.Q.Q.2 3 3 3 3 1 < < < > < < > > > 4 1 3 3 5 5 1 Q.Q.Q.Q.Q.Q.Q.Q.Q.Q.Q.Q.Q.Q.Q.Q.Q.Q.Q.Q.Q.Q.",
"Q.Q.Q.Q.Q.Q.Q.Q.Q.Q.Q.Q.Q.Q.Q.Q.Q.Q.  < ` q.r.w.%...} { { { { { { { { { #.>.r.r.e.` <   Q.Q.Q.Q.Q.Q.Q.Q.Q.Q.Q.Q.Q.Q.Q.Q.Q.Q.Q.Q.",
"Q.Q.Q.Q.Q.Q.Q.Q.Q.Q.Q.Q.Q.Q.Q.Q.Q.Q.< T p.T.E.T.T.J.A.D.c.A.A.A.n.n.n.n.K.T.R.R.T.i.T < Q.Q.Q.Q.Q.Q.Q.Q.Q.Q.Q.Q.Q.Q.Q.Q.Q.Q.Q.Q.",
"Q.Q.Q.Q.Q.Q.Q.Q.Q.Q.Q.Q.Q.Q.Q.Q.  < ` y.S.R.J.H.T.E.T.T.T.W.T.T.T.T.W.R.E.T.H.J.T.K.i.` < o Q.Q.Q.Q.Q.Q.Q.Q.Q.Q.Q.Q.Q.Q.Q.Q.Q.Q.",
"Q.Q.Q.Q.Q.Q.Q.Q.Q.Q.Q.Q.Q.Q.Q.Q.> m w.T.W.D.>.>.S.E.E.E.E.E.E.E.E.E.E.E.E.S.0.=.D.R.Y.w.Y > Q.Q.Q.Q.Q.Q.Q.Q.Q.Q.Q.Q.Q.Q.Q.Q.Q.Q.",
"Q.Q.Q.Q.Q.Q.Q.Q.Q.Q.Q.Q.Q.Q.X < W >.x.J.H.q.d m a.E.E.E.E.E.E.E.E.E.E.E.E.a.m M ,.G.J.x.=.! < X Q.Q.Q.Q.Q.Q.Q.Q.Q.Q.Q.Q.Q.Q.Q.Q.",
"Q.Q.Q.Q.Q.Q.Q.Q.Q.Q.Q.Q.Q.Q.X 1 | c.G.x.=.E - 3 t.E.E.E.E.E.E.E.E.E.E.E.E.t.3 - E >.x.G.c.| < . Q.Q.Q.Q.Q.Q.Q.Q.Q.Q.Q.Q.Q.Q.Q.Q.",
"Q.Q.Q.Q.Q.Q.Q.Q.Q.Q.Q.Q.Q.Q.X 1 } c.c.>.M ; @ 5 t.E.E.E.E.E.E.E.E.E.E.E.E.t.3 # - d >.c.c.| < . Q.Q.Q.Q.Q.Q.Q.Q.Q.Q.Q.Q.Q.Q.Q.Q.",
"Q.Q.Q.Q.Q.Q.Q.Q.Q.Q.Q.Q.Q.Q.X 1 Q | | Q >   . 5 r.E.E.E.E.E.E.E.E.E.E.E.E.r.5 .   > Q | } ) 7 < Q.Q.Q.Q.Q.Q.Q.Q.Q.Q.Q.Q.Q.Q.Q.Q.",
"Q.Q.Q.Q.Q.Q.Q.Q.Q.Q.Q.Q.Q.Q.Q.Q.< 1 1 < Q.Q.X 3 0.W.E.E.E.E.E.E.E.E.E.E.T.0.3 . Q.Q.1 1 > 7 ) ^ 1 X Q.Q.Q.Q.Q.Q.Q.Q.Q.Q.Q.Q.Q.Q.",
"Q.Q.Q.Q.Q.Q.Q.Q.Q.Q.Q.Q.Q.Q.Q.Q.X X X X Q.Q.X 3 #.J.T.T.T.T.T.T.T.T.T.T.J.#.3 X Q.Q.. @ ; d ,.| 2 X Q.Q.Q.Q.Q.Q.Q.Q.Q.Q.Q.Q.Q.Q.",
"Q.Q.Q.Q.Q.Q.Q.Q.Q.Q.Q.Q.Q.Q.Q.Q.Q.Q.Q.Q.Q.Q.X 2 #.J.c.x.n.n.n.n.A.n.c.A.H.>.5 X . . . ; E =.l.| 1 X Q.Q.Q.Q.Q.Q.Q.Q.Q.Q.Q.Q.Q.Q.",
"Q.Q.Q.Q.Q.Q.Q.Q.Q.Q.Q.Q.Q.Q.Q.Q.Q.Q.Q.Q.Q.Q.X 3 #.H.c.y.=.{ } { {  .y.c.H.>.2 # , 1 1 Y ,.s.=.W < X Q.Q.Q.Q.Q.Q.Q.Q.Q.Q.Q.Q.Q.Q.",
"Q.Q.Q.Q.Q.Q.Q.Q.Q.Q.Q.Q.Q.Q.Q.Q.Q.Q.Q.Q.Q.Q.X 3 >.J.J.q.m > 1 1 < m q.H.J.#.2 : W | | =.l.=.m , Q.Q.Q.Q.Q.Q.Q.Q.Q.Q.Q.Q.Q.Q.Q.Q.",
"Q.Q.Q.Q.Q.Q.Q.Q.Q.Q.Q.Q.Q.Q.Q.Q.Q.Q.Q.Q.Q.Q.X 3 %.J.J.#.2 . . X . 2 >.J.Y.#.2 : E =.| | { W >   Q.Q.Q.Q.Q.Q.Q.Q.Q.Q.Q.Q.Q.Q.Q.Q.",
"Q.Q.Q.Q.Q.Q.Q.Q.Q.Q.Q.Q.Q.Q.Q.Q.Q.Q.Q.Q.Q.Q.X 3 =.T.Y.=.2 . X X . 3 >.K.J.>.5 # : 2 2 2 2 < Q.Q.Q.Q.Q.Q.Q.Q.Q.Q.Q.Q.Q.Q.Q.Q.Q.Q.",
"Q.Q.Q.Q.Q.Q.Q.Q.Q.Q.Q.Q.Q.Q.Q.Q.Q.Q.Q.Q.Q.Q.X 2 =.J.G.=.5 X X O X 3 >.J.J.>.2 X . . X O X X Q.Q.Q.Q.Q.Q.Q.Q.Q.Q.Q.Q.Q.Q.Q.Q.Q.Q.",
"Q.Q.Q.Q.Q.Q.Q.Q.Q.Q.Q.Q.Q.Q.Q.Q.Q.Q.Q.Q.Q.Q.X 1 | c.c.=.1 X Q.Q.X 5 | n.n.| 2 X Q.Q.Q.Q.Q.Q.Q.Q.Q.Q.Q.Q.Q.Q.Q.Q.Q.Q.Q.Q.Q.Q.Q.Q.",
"Q.Q.Q.Q.Q.Q.Q.Q.Q.Q.Q.Q.Q.Q.Q.Q.Q.Q.Q.Q.Q.Q.X 1 Q } | Q > X Q.Q.. > Q | } Q 1 X Q.Q.Q.Q.Q.Q.Q.Q.Q.Q.Q.Q.Q.Q.Q.Q.Q.Q.Q.Q.Q.Q.Q.Q.",
"Q.Q.Q.Q.Q.Q.Q.Q.Q.Q.Q.Q.Q.Q.Q.Q.Q.Q.Q.Q.Q.Q.Q.Q.> 1 1 1 Q.Q.Q.Q.Q.Q.1 1 1 > Q.Q.Q.Q.Q.Q.Q.Q.Q.Q.Q.Q.Q.Q.Q.Q.Q.Q.Q.Q.Q.Q.Q.Q.Q.Q.",
"Q.Q.Q.Q.Q.Q.Q.Q.Q.Q.Q.Q.Q.Q.Q.Q.Q.Q.Q.Q.Q.Q.Q.Q.X X X X Q.Q.Q.Q.Q.Q.X X X X Q.Q.Q.Q.Q.Q.Q.Q.Q.Q.Q.Q.Q.Q.Q.Q.Q.Q.Q.Q.Q.Q.Q.Q.Q.Q.",
"Q.Q.Q.Q.Q.Q.Q.Q.Q.Q.Q.Q.Q.Q.Q.Q.Q.Q.Q.Q.Q.Q.Q.Q.Q.Q.Q.Q.Q.Q.Q.Q.Q.Q.Q.Q.Q.Q.Q.Q.Q.Q.Q.Q.Q.Q.Q.Q.Q.Q.Q.Q.Q.Q.Q.Q.Q.Q.Q.Q.Q.Q.Q.Q.",
"Q.Q.Q.Q.Q.Q.Q.Q.Q.Q.Q.Q.Q.Q.Q.Q.Q.Q.Q.Q.Q.Q.Q.Q.Q.Q.Q.Q.Q.Q.Q.Q.Q.Q.Q.Q.Q.Q.Q.Q.Q.Q.Q.Q.Q.Q.Q.Q.Q.Q.Q.Q.Q.Q.Q.Q.Q.Q.Q.Q.Q.Q.Q.Q.",
"Q.Q.Q.Q.Q.Q.Q.Q.Q.Q.Q.Q.Q.Q.Q.Q.Q.Q.Q.Q.Q.Q.Q.Q.Q.Q.Q.Q.Q.Q.Q.Q.Q.Q.Q.Q.Q.Q.Q.Q.Q.Q.Q.Q.Q.Q.Q.Q.Q.Q.Q.Q.Q.Q.Q.Q.Q.Q.Q.Q.Q.Q.Q.Q.",
"Q.Q.Q.Q.Q.Q.Q.Q.Q.Q.Q.Q.Q.Q.Q.Q.Q.Q.Q.Q.Q.Q.Q.Q.Q.Q.Q.Q.Q.Q.Q.Q.Q.Q.Q.Q.Q.Q.Q.Q.Q.Q.Q.Q.Q.Q.Q.Q.Q.Q.Q.Q.Q.Q.Q.Q.Q.Q.Q.Q.Q.Q.Q.Q.",
"Q.Q.Q.Q.Q.Q.Q.Q.Q.Q.Q.Q.Q.Q.Q.Q.Q.Q.Q.Q.Q.Q.Q.Q.Q.Q.Q.Q.Q.Q.Q.Q.Q.Q.Q.Q.Q.Q.Q.Q.Q.Q.Q.Q.Q.Q.Q.Q.Q.Q.Q.Q.Q.Q.Q.Q.Q.Q.Q.Q.Q.Q.Q.Q.",
"Q.Q.Q.Q.Q.Q.Q.Q.Q.Q.Q.Q.Q.Q.Q.Q.Q.Q.Q.Q.Q.Q.Q.Q.Q.Q.Q.Q.Q.Q.Q.Q.Q.Q.Q.Q.Q.Q.Q.Q.Q.Q.Q.Q.Q.Q.Q.Q.Q.Q.Q.Q.Q.Q.Q.Q.Q.Q.Q.Q.Q.Q.Q.Q."
};
