/* XPM */
static char *result[] = {
/* columns rows colors chars-per-pixel */
"64 64 163 2 ",
"   c #ACD62A",
".  c #AAD42A",
"X  c #A6D02A",
"o  c #ADD72A",
"O  c #AFD92D",
"+  c #B6E034",
"@  c #ACD629",
"#  c #A6CF2A",
"$  c #A4CD2A",
"%  c #A7D02A",
"&  c #ACD72A",
"*  c #A9D22A",
"=  c #A2C829",
"-  c #ABD42A",
";  c #AED82D",
":  c #B2DC33",
">  c #A5CD2A",
",  c #ABD52A",
"<  c #A8D12A",
"1  c #A7D12A",
"2  c #A9D32A",
"3  c #AFD82C",
"4  c #B4DD31",
"5  c #B4DE32",
"6  c #B0DA2F",
"7  c #ADD72C",
"8  c #ABD52B",
"9  c #AAD42C",
"0  c #A9D22C",
"q  c #A7D12B",
"w  c #A4CB29",
"e  c #A4CC29",
"r  c #AAD32A",
"t  c #AFD931",
"y  c #B0D931",
"u  c #AFD92F",
"i  c #AED82C",
"p  c #ADD72B",
"a  c #B1DB31",
"s  c #B0DA30",
"d  c #B2DC31",
"f  c #B2DB31",
"g  c #ACD52A",
"h  c #ACD52F",
"j  c #B3DC32",
"k  c #AFD92C",
"l  c #A5CE2A",
"z  c #ACD62C",
"x  c #B0DA31",
"c  c #B4DE31",
"v  c #B3DD31",
"b  c #ACD52C",
"n  c #A9D22B",
"m  c #A8D22A",
"M  c #A3CA29",
"N  c #A8D22B",
"B  c #A7D02B",
"V  c #ADD62C",
"C  c #A1C829",
"Z  c #B5DF34",
"A  c #AAD42B",
"S  c #AAD32C",
"D  c #ADD82C",
"F  c #A0C729",
"G  c #B3DD33",
"H  c #B1DA31",
"J  c #AAD329",
"K  c #AFD92E",
"L  c #A4CC2A",
"P  c #A2CA29",
"I  c #ABD42C",
"U  c #B3DC31",
"Y  c #B5DE33",
"T  c #B6DF34",
"R  c #B2DB2F",
"E  c #B5DF33",
"W  c #ACD72B",
"Q  c #A6CE2A",
"!  c #ACD62B",
"~  c #A5CC29",
"^  c #AAD32D",
"/  c #B1DB33",
"(  c #B5DF35",
")  c #B6DF33",
"_  c #B6E033",
"`  c #B8E136",
"'  c #B4DD34",
"]  c #B0D92D",
"[  c #B3DD34",
"{  c #B7E036",
"}  c #A0C629",
"|  c #A3CB2A",
" . c #A5CF2A",
".. c #AED830",
"X. c #B7E035",
"o. c #B7E034",
"O. c #B1DB2F",
"+. c #B0D92F",
"@. c #B5DF36",
"#. c #B5DE32",
"$. c #AFD830",
"%. c #AFD933",
"&. c #A8D12D",
"*. c #A8D02A",
"=. c #AFD930",
"-. c #ADD72D",
";. c #AED72D",
":. c #A7CF29",
">. c #A3CB29",
",. c #A9D32C",
"<. c #B4DE34",
"1. c #ABD42D",
"2. c #B5DE34",
"3. c #ABD52D",
"4. c #A1C929",
"5. c #ADD630",
"6. c #A7D02C",
"7. c #A8D12C",
"8. c #A5CE2B",
"9. c #A2C929",
"0. c #AAD32B",
"q. c #AAD42D",
"w. c #A3CC2A",
"e. c #B1DB32",
"r. c #ADD731",
"t. c #B2DB33",
"y. c #ACD52B",
"u. c #B6DF35",
"i. c #ABD529",
"p. c #AAD429",
"a. c #A9D22D",
"s. c #A9D229",
"d. c #AED72C",
"f. c #B3DC33",
"g. c #B0DA2D",
"h. c #B0DA2E",
"j. c #B2DB34",
"k. c #B6E036",
"l. c #ABD52F",
"z. c #A9D12A",
"x. c #A8D12B",
"c. c #ABD629",
"v. c #B0DB31",
"b. c #A7D12C",
"n. c #B1DA2F",
"m. c #B3DD32",
"M. c #ABD52C",
"N. c #B4DD32",
"B. c #ADD62F",
"V. c #B6E035",
"C. c #ADD730",
"Z. c #A8D22C",
"A. c #B1DC33",
"S. c #B0D930",
"D. c #ADD62D",
"F. c #B4DD33",
"G. c #B2DC34",
"H. c #A6CF2B",
"J. c #B0D92E",
"K. c #B1DA2E",
"L. c #A5CE29",
"P. c #ADD62A",
"I. c white",
/* pixels */
"  . X X . o o . X X .     O + + O @   . # $ $ % .     . X X . & o * = = * - % % .   &         ; : : ; @                   . % > ",
"  , < 1 2 . . 2 1 1 2 , , 3 4 5 6 7   8 9 0 q < ,     , < < -   , < w e r . % X . , r r ,     7 t y u i p p i 3 p   - . . 2 < % ",
"    , 2 < % % < 2 2 < < - p 3 6 a s 7 i d f 7 , ,       - - , . < % < r g . X % . r e e 2     8 0 h j 4 i i 4 4 k - < X X < r - ",
". . . 2 # l # < , . X X .   . z x x 7 3 c v b 2 ,   , -   p k 7 n < ,   , 2 1 m , * M M * &   . # 0 f 4 3 i 4 4 7 2 1 X # 1 2 . ",
"% % % # l # * ,   . X X . , < N z i p p k b > e r , < < . k 4 v 7 -   , < % 2 ,   r l l r &   . # B V k p p k 7 n 1 2 . . 2 1 % ",
"l l # X X N z i p - < < 2 2 1 % < 2 ,   , % C = * . % # . O Z Z O g - A S S A ,   - < 1 2 ,   , < < -   , ,   r l l r p k 7 n # ",
"l # * . . z x x D   , 2 1 1 2 < w e r , m $ F = * . % # . ; G G O . 1 S H H S < .   , 2 1 < ,   , ,   , < < , * M M * k c v 7 J ",
"X n 7 O ; K a x 7   , 2 1 < , 2 e e r - % L P e r , < < - D x x z 2 % I U U 9 < z ; O 7 n % 2 ,   , r < # # 2 < e w < ; Y T R O ",
". 7 U E G a K 7 W - < 1 2 ,   , * 2 , . X Q < r , , - - g p 7 z N 1 2 ! i i 8 z s G E v 7 2 % < , r ~ M L l # % * < % ^ / ( T ) ",
"  O _ ` ' s 7     . X X . p k ] ] k p . < < , p k k p         - < % < r , , - z s [ { E O , S I ! * = } |  .# % * < % 0 ..G X.` ",
"  O + o.O.7     & . X # . k 4 o.o.4 i , . - , 3 4 4 k           , < e e r , < N z 6 [ G ; i U U 3 * = } | X 2 < e w < 8 7 +.[ @.",
"  3 4 4 i , . r * < % 1 2 7 v o.` T O.i o p i O.#.U b * r ,     , % C C % r < < . 7 s x K K j d 7 < e M l m , * M M * &   7 $.%.",
"  p k k p - < l M e m r 1 n 7 O.' ( T 4 i i 4 #.O.b > M l m , , m $ F F > < r , g   7 K a x h 0 B % < 2 . ,   r l l . &   8 0 &.",
"  , * * , , m $ F C *.r < 1 2 z =.[ { Y -.;.T T ; :.C F $ < r r < l >.M L # 2 ,       7 x t ,.# # 1 2 ,       - < 1 2 . . 2 1 X ",
"& r e e r   , % C F $ < r 2 1 < z 6 <./ ^ 1.2.2.3.e F C *.r < < 2 . 2 < # l # < ,     p 7 7 8 . . 2 1 < ,       , 2 1 X X 1 2 . ",
". < w w < ,   2 M 4.> < , . X # * b ..5.6.0 f U I > 4.M < * l l .   , r < % % % < * r - , , , ,   8 ,.0 8     p k 7 n # # 1 2 . ",
"X % < < % < , . l > < ,   . % l # B 7.6.8.B V i ! m > $ # l 9.M * , m 1 2 - - < e M l < , - < < - 7 t t 7 @   k c 4 7 . . 2 1 % ",
"% < . . < 1 2 0.0 q.;.k p . < % X # l l # < -     , m X l w.C M * , < < ,   , % C F $ m , , < < . i x e.6 i , V f U i     , < X ",
". r < < r 2 1 0 r.t.Y 4 i , - . . * # # * ,         , 2 # $ w.l r   . .   , m $ F C % ,     , , g ! 7 6 #.U 9 B 0 I !       , . ",
", * l l * 2 1 0 =.' { T R i o p k 7 n < ,   , -     , 2 < % % m , p k k p - < l M e < ,     , ,       3 4 U I # # 1 2 . . ,     ",
"% l 9.9.l < 2 8 7 6 [ ( T v i i 4 4 7 -   , < < , , < 1 2 - . - , 3 4 4 i , . r * < % < , , < < -     p 3 i y.. . 2 < X X < ,   ",
"l | F F > m ,     7 s [ { T O.O.#.4 k   - 2 1 < - - < 1 2 ,       3 4 #.O.i p     , < < , . X X .   , , , g , . * < # l # < ,   ",
"l | F C % ,         7 u [ u.T #.O.3 p , < 1 2 , g g , 2 1 < .     p i O.#.4 3     , , ,   . X X . , m m , , m l M P L # * ,     ",
"% l 9.M < ,     , - , 7 ../ Y 4 i , . 2 1 < , p i 7 p - < n 7 i y.. i.O E Z O p i i y.. . 2 1 1 2 m > > * r < l M M l < ,       ",
"- * l $ # m , , < < - 8 0 ^ ; k p . < 1 2 -   i x x 7 i.. 7 4 U 9 1 p.; G G ; 3 4 U I # # 1 2 2 < > 4.4.> < 2 r * * r -         ",
"  . % l # < , . X X . . X l % r , , < < ,     7 x e.6 i , ;.Y ' a.# . i x =.z 7 4 U I # # N z z N l M P L % .     p k 3 p , - . ",
"  . % # * -   . X X . . % L P e r   , -       ! 7 6 #.d S ^ t./ a.# . p i z N n 7 i y.. . z x x z J s.% l X .     i 4 4 k . < X ",
"  , < n 7 k p . < n 7 7 n $ F C % ,       g - . , 3 c U S 0 =.t ,.1 2 ,   . # # .   , ,   i x a K ; O 7 n < . p i R + E O . < X ",
"    - 7 4 4 i i.. 7 v 4 d.% C F $ m ,     - < < . p k i 8 8 7 7 8 2 1 < , . X X . , m m , p 7 K a G E v 7 p., i 4 T ( f.; , - . ",
". -   k 4 #.O.i o ] o.o.g.2 e M l N z i p . < < -   . .     , . . 2 1 < , , < < 2 * > l r     7 s [ { + R i   O E { [ s 7   , . ",
"X < , p 3 O.#.4 i O + o.] , r * r z x x 7 , . -   - < < , , < X X 1 2 ,     , 2 < > 9.M *       7 +.[ u.+ 4 i ; G [ +.7 p , < X ",
"X 1 2 - , i d d i i 4 4 k , , ,   i x a h.i p     . < 1 2 2 # l # < , , r r , , m $ F 9.*   , - , 7 ..j.k.E O 7 ..=.7 , 2 < % X ",
". 2 1 < - 8 9 S 8 p k k p , < < , p 7 6 5 4 3     , - 2 1 # l # 2 ,   r e e r   , % C 9.* , < < - , 0 l.j.G ; , 0 ,.8 r e w < . ",
"  . X X . - 1 1 - , 2 * r 2 1 < -     O E Z O p i k p , < # $ l * ,   2 w w 2 & o * M M * , < < , , < 0 $.x i - < 1 2 < w e r o ",
"  . X X .   . .   2 e M l < 2 ,       ; G G ; 3 4 4 k   , < M 9.> m , , * * ,     r l l r   , -     - 8 7 7 p   - 2 1 % < r g o ",
"  - < < . p k k p 2 e M l < r ,       7 x =.z 7 v c k   , % C F $ < , p k k p     , < < -       - -         , ,   , < < , g r z.",
"  g . . , 3 4 4 k , 2 * r 2 < m ,     p 7 z x.n 7 k p , m $ F C % ,   k 4 4 i       , , ,     - < < , & & , < < ,   - ,   r e = ",
"  p 3 O ; 6 5 4 k , , ,   . l l r   , ,   - < 1 2 -   , < l M ~ r   - ;.Y + R i p     p 3 k p - < 1 2 . 2 < Q X . p i i p * e = ",
"i.i 4 E G a h.3 p , < m , * M M * , m < ,   , 2 % < -   , r * r , , < ^ / u.T 4 3   c.i 4 c 3 , , 2 < l >.M L X . i v.x 7 , 2 * ",
"O O.T { [ s 7 , - * # % . * 9.9.* . l > m ,   , < < .       , ,   . # b...[ { Y ;., i n.m.U i   , r < $ F F > m , i x a h.i p   ",
") T ( [ +.7   - < # l % - * 9.9.* 2 M C > m ,   , - ,     , < < , . X B M.6 <./ ^ S d N.B.S y., < < r % C C % ,   W 7 6 5 4 3   ",
"` V.G s 7     , < X X m , * M >.* r ~ M l 1 2 ,   p 3 3 p . < < , , < 1 2 b ..C.Z.9 U U S % 2 2 < < r m e e < - . - , O E E O   ",
"@.[ 6 7         - . . ,   r l l r , r * . 2 1 < . k 4 4 i , . -     - 2 1 B 7.0 0.y.i i 8 2 1 1 r r < % < < % % % < . ; G G ;   ",
"A.s z . ,   - -       p k 7 n < -   , ,   , < < . O E T R i p     p k 7 n # # < ,   . .   , < % < < # % - , m l L l r i x S.z . ",
"; z N < - , < < ,     3 4 v 7 - , . < < ,   , . , ; f.( T 4 3   i.i c 4 7 . . ,   - < < -   , < w P L % .   , *.9.M * p i z N # ",
". 2 1 < , , < 1 2 - , O Z E O p k 7 n 1 2 ,       7 s [ { Y ;., i n.m.U i g - ,   - < < -   o r e M l m -     r e w < ,   - < X ",
"# 1 2 ,     , 2 1 < . ; G G ; k 4 4 7 2 % < , &   ! 7 6 [ / ^ S d N.B.S y., < < -   . . ,     , r * r , ,     , r < % < ,   , . ",
"X % < r , g r < Q X . i x s z V f U 3 , < % < * r - , 7 s ..0 9 U U 9 1 - , < < - p k k p , . -       p 3 3 p     , < 1 2 ,     ",
". < w e r r ~ M L % . p i z N B 0 I !   , < w M l < , p 7 7 8 8 i i y.,     - . , 3 4 4 3 . 1 < ,     i 4 4 3       , 2 < m ,   ",
"& r e w < % C F $ m ,   , 2 1 X # 1 2 ,   2 e M l 1 2 - ,       - r * * r ,       3 4 #.6 D.1.S 8 o i R + E O       , m > l r   ",
"  , r < % $ F C % ,   - < 1 2 . . 2 1 < - , 2 * r 2 1 < -     , < l M M l < ,     p 3 h.a : F.f i i v T u.G ;     , m > C M * o ",
"    , r 1 l M e r     . < < -   , 2 1 n 7 k p     , < < .     . % L P M l < ,   , . . z s [ { E O O E k.j...M.-   , m l M e < . ",
"  , < 1 2 r * r ,     , - - g - < 1 2 7 v 4 i       - - ,     . X l < * r ,   , < X X m z 6 ' G ; ; G G.h b.B < ,   , . * < % X ",
"  - < x.z i p     p 3 i p p k 7 n % 2 ; Y + R i p     p 3 k p - < < ,       , 2 1 Q L l r 7 s s 7 7 =.5.b.l # < ,   - ,   , < X ",
"  , . z x a i     3 4 4 i i 4 4 7 2 % ^ / u.T 4 i   c.i 4 c k , - - ,     , < 1 2 < P M * p 7 7 p 8 ,.6.H.# * ,   - < < ,   , . ",
"  o i J.y t 7     O E T O.K.#.c k . # 7...[ { E O o i n.m.f V -   p 3 3 p . 1 < , r e e 2     g , 2 1 l L Q . &   8 9 S 8 , , . ",
"i.i 4 j h 0 8     ; G ( T #.O.k p . X B M.6 [ G ; 3 4 m.B.0 B < - k 4 4 3 , . .   , r 2 ,     - < 1 2 < M >.*     i U U i . < X ",
"O R + F.1.1 .   - z =.[ { Y -.p.. * # % . 7 s =.z 7 4 U 9 L.L l r k 4 5 6 ; O 3 p     p 3 3 p - < m , * 9.C % ,   k 4 #.O.V N # ",
") T ( : -.-   - < x.b 6 ' t.^ # X # l % . p 7 z x.n 7 i ! % 9.M * p k h.a G E 4 3   @ 3 4 4 3 , , ,   * 9.F $ m , p 3 O.#.v 7 . ",
"` V.G =.z ,   , < < . 7 =.r.0 X % # L l r     . < < .   , < w w < , , 7 s [ { E O P.i O.#.4 k , 2 * . < e M l 1 2 . i.O E E O   ",
"@.[ 6 b x.< ,   , -   8 ,.0 0.. - < P M *     , . -   , < % < < % < .   7 6 [ G ; i 4 #.O.k p r e M l % m 2 . 2 1 < . ; G G ;   ",
"e.s 7 . < 1 2 ,     , * # X .   , < w e 2 p k 3 p   , * # % - - % X .   . z S.=.z 7 v v 7 . . < w M l < r ,   , < 1 2 b ..$.7   ",
"; 7 ! g , 2 1 < , , m # l % . , m % < r , 3 4 4 k - < # l % - . % % . , < N z z N n 7 7 n X X % < * . 2 < m ,   , 2 1 B 7.,.8   ",
"          . X X . . % l l % . . X X .     O + o.] . X l l % . . % % . . X X . . X X . . % > > % - o o . X X .   & . % $ $ X .   "
};
