/* XPM */
static char *result[] = {
/* columns rows colors chars-per-pixel */
"64 64 197 2 ",
"   c #5E3D0C",
".  c #39570F",
"X  c #2D4A14",
"o  c #314A15",
"O  c #2F5017",
"+  c #32551A",
"@  c #355C1B",
"#  c #395E1B",
"$  c #3D651A",
"%  c #3D6B1A",
"&  c #35601C",
"*  c #424411",
"=  c #445B19",
"-  c #4B5C19",
";  c #565917",
":  c #5A5B17",
">  c #575F19",
",  c #754B0F",
"<  c #794C0F",
"1  c #70470F",
"2  c #764C10",
"3  c #7B4E10",
"4  c #635514",
"5  c #695614",
"6  c #6C5B12",
"7  c #625C17",
"8  c #725413",
"9  c #7C5211",
"0  c #7B5B13",
"q  c #775C14",
"w  c #416515",
"e  c #426518",
"r  c #4C6618",
"t  c #426A1A",
"y  c #5C651A",
"u  c #536A19",
"i  c #5B6B19",
"p  c #506618",
"a  c #4B7416",
"s  c #4D7817",
"d  c #487218",
"f  c #4E7A18",
"g  c #467118",
"h  c #527D16",
"j  c #507D18",
"k  c #5D7815",
"l  c #6D661B",
"z  c #7A6312",
"x  c #7D6A17",
"c  c #756D1B",
"v  c #657C16",
"b  c #667219",
"n  c #6D7613",
"m  c #787813",
"M  c #616D21",
"N  c #835411",
"B  c #8A5711",
"V  c #855B14",
"C  c #8C5912",
"Z  c #935E12",
"A  c #985F12",
"S  c #836C0D",
"D  c #8D720F",
"F  c #827F0D",
"G  c #816114",
"H  c #8C6614",
"J  c #8F6E14",
"K  c #966113",
"L  c #9C6413",
"P  c #976B15",
"I  c #9F6814",
"U  c #977413",
"Y  c #867614",
"T  c #A07E0F",
"R  c #A26613",
"E  c #A56913",
"W  c #AD6D14",
"Q  c #A86614",
"!  c #B06F14",
"~  c #A27415",
"^  c #AB7314",
"/  c #AC7A16",
"(  c #A57617",
")  c #B27114",
"_  c #BB7615",
"`  c #BE7815",
"'  c #B37318",
"]  c #B57F18",
"[  c #BD7A1A",
"{  c #C57C16",
"}  c #C97F16",
"|  c #C47D19",
" . c #C87F18",
".. c #5E8205",
"X. c #558315",
"o. c #588615",
"O. c #578816",
"+. c #5B8A15",
"@. c #5F9312",
"#. c #6C9B0D",
"$. c #68950E",
"%. c #749C0E",
"&. c #7C9B0F",
"*. c #6A8414",
"=. c #618E12",
"-. c #678114",
";. c #748516",
":. c #718F13",
">. c #639413",
",. c #659914",
"<. c #6C9D10",
"1. c #6F9010",
"2. c #729111",
"3. c #7B9A11",
"4. c #7B9410",
"5. c #6FA10F",
"6. c #7BAD07",
"7. c #73A50D",
"8. c #76A90C",
"9. c #7AAC0A",
"0. c #7FB307",
"q. c #7EB10A",
"w. c #6EA010",
"e. c #71A310",
"r. c #9B8C0F",
"t. c #848315",
"y. c #8F8113",
"u. c #938512",
"i. c #869811",
"p. c #AD8411",
"a. c #BB8916",
"s. c #BB821B",
"d. c #8CA807",
"f. c #93A908",
"g. c #83B506",
"h. c #85B905",
"j. c #89BD04",
"k. c #81B30B",
"l. c #8ABC08",
"z. c #87B708",
"x. c #96B705",
"c. c #BC8A29",
"v. c #CC8116",
"b. c #C3831D",
"n. c #CB831A",
"m. c #CA881F",
"M. c #C68116",
"N. c #D48617",
"B. c #D4871B",
"V. c #D6891C",
"C. c #DB8C1B",
"Z. c #DC8B17",
"A. c #DC921F",
"S. c #E18F1A",
"D. c #E2921E",
"F. c #C88822",
"G. c #D68C24",
"H. c #D98F25",
"J. c #C0902D",
"K. c #DD9321",
"L. c #DF982C",
"P. c #E59624",
"I. c #E59A23",
"U. c #E99D24",
"Y. c #E3962B",
"T. c #E29C2D",
"R. c #E99B2C",
"E. c #EB9E30",
"W. c #DFA831",
"Q. c #EBA32D",
"!. c #ECA82A",
"~. c #EDA431",
"^. c #E7AD33",
"/. c #EBAD34",
"(. c #F1AB36",
"). c #F1A433",
"_. c #EEB132",
"`. c #EBB638",
"'. c #F2B334",
"]. c #F4B43A",
"[. c #F6BB3A",
"{. c #F9BC3B",
"}. c #8EC103",
"|. c #92C502",
" X c #95C902",
".X c #99CE01",
"XX c #9DD301",
"oX c #A0D600",
"OX c #A5DB00",
"+X c #ABE300",
"@X c #B5EE01",
"#X c #B9F300",
"$X c #FAC23D",
"%X c #FBC541",
"&X c #FECC43",
"*X c #FFD045",
"=X c None",
/* pixels */
"=X=X=X=X=X=X=X=X=X=X=X=X=X=X=X=X=X=X=X=X=X=X=X=X=X=X=X=X=X=X=X=X=X=X=X=X=X=X=X=X=X=X=X=X=X=X=X=X=X=X=X=X=X=X=X=X=X=X=X=X=X=X=X=X",
"=X=X=X=X=X=X=X=X=X=X=X=X=X=X=X=X=X=X=X=X=X=X=X=X=X=X=X=X=X=X=X=X=X=X=X=X=X=X=X=X=X=X=X=X=X=X=X=X=X=X=X=X=X=X=X=X=X=X=X=X=X=X=X=X",
"=X=X=X=X=X=X=X=X=X=X=X=X=X=X=X=X=X=X=X=X=X=X=X=X=X=X=X=X=X=X=X=X=X=X=X=X=X=X=X=X=X=X=X=X=X=X=X=X=X=X=X=X=X=X=X=X=X=X=X=X=X=X=X=X",
"=X=X=X=X=X=X=X=X=X=X=X=X=X=X=X=X=X=X=X=X=X=X=X=X=X=X=X=X=X=X=X=X=X=X=X=X=X=X=X=X=X=X=X=X=X=X=X=X=X=X=X=X=X=X=X=X=X=X=X=X=X=X=X=X",
"=X=X=X=X=X=X=X=X=X=X=X=X=X=X=X=X=X=X=X=X=X=X=X=X=X=X=X=X=X=X=X=X=X=X=X=X=X=X=X=X=X=X=X=X=X=X=X=X=X=X=X=X=X=X=X=X=X=X=X=X=X=X=X=X",
"=X=X=X=X=X=X=X=X=X=X=X=X=X=X=X=X=X=X=X=X=X=X=X=X=X=X=X=X=X=X=X=X=X=X=X=X=X=X=X=X=X=X=X=X=X=X=X=X=X=X=X=X=X=X=X=X=X=X=X=X=X=X=X=X",
"=X=X=X=X=X=X=X=X=X=X=X=X=X=X=X=X=X=X=X=X=X=X=X=X=X=X=X=X=X=X=X=X=X=X=X=X=X=X=X=X=X=X=X=X=X=X=X=X=X=X=X=X=X=X=X=X=X=X=X=X=X=X=X=X",
"=X=X=X=X=X=X=X=X=X=X=X=X=X=X=X=X=X=X=X=X=X=X=X=X=X=X=X=X=X=X=X=X=X=X=X=X=X=X=X=X=X=X=X=X=X=X=X=X=X=X=X=X=X=X=X=X=X=X=X=X=X=X=X=X",
"=X=X=X=X=X=X=X=X=X=X=X=X=X=X=X=X=X=X=X=X=X=X=X=X=X=X=X=X=X=X=X=X=X=X=X=X=X=X=X=X=X=X=X=X=X=X=X=X=X=X=X=X=X=X=X=X=X=X=X=X=X=X=X=X",
"=X=X=X=X=X=X=X=X=X=X=X=X=X=X=X=X=X=X=X=X=X=X=X=X=X=X=X=X=X=X=X=X=X=X=X=X=X=X=X=X=X=X=X=X=X=X=X=X=X=X=X=X=X=X=X=X=X=X=X=X=X=X=X=X",
"=X=X=X=X=X=X=X=X=X=X=X=X=X=X=X=X=X=X=X=X=X=X=X=X=X=X=X=X=X=X=X=X=X=X=X=X=X=X=X=X=X=X=X=X=X=X=X=X=X=X=X=X=X=X=X=X=X=X=X=X=X=X=X=X",
"=X=X=X=X=X=X=X=X=X=X=X=X=X=X=X=X=X=X=X=X=X=X=X=X=X=X=X=X=X=X=X=X=X=X=X=X=X=X=X=X=X=X=X=X=X=X=X=X=X=X=X=X=X=X=X=X=X=X=X=X=X=X=X=X",
"=X=X=X=X=X=X=X=X=X=X=X=X=X=X=X=X=X=X=X=X=X=X=X=X=X=X=X=X=X=X=X=X=X=X=X=X=X=X=X=X=X=X=X=X=X=X=X=X=X=X=X=X=X=X=X=X=X=X=X=X=X=X=X=X",
"=X=X=X=X=X=X=X=X=X=X=X=X=X=X=X=X=X=X=X=X=X=X=X=X=X=X=X=X=X=X=X=X=X=X=X=X=X=X=X=X=X=X=X=X=X=X=X=X=X=X=X=X=X=X=X=X=X=X=X=X=X=X=X=X",
"=X=X=X=X=X=X=X=X=X=X=X=X=X=X=X=X=X=X=X=X=X=X=X=X=X=X=X=X=X=X=X=X=X=X}.}.}.g.5.o.t @ =X=X=X=X=X=X=X=X=X=X=X=X=X=X=X=X=X=X=X=X=X=X",
"=X=X=X=X=X=X=X=X=X=X=X=X=X=X=X=X=X=X=X=X=X=X=X=X=X=X=X=X=X=X=X=X=X=Xg.z.}.g.5.O.d t =X=X=X=X=X=X=X=X=X=X=X=X=X=X=X=X=X=X=X=X=X=X",
"=X=X=X=X=X=X=X=X=X=X=X=X=X=X=X=X=X=X=X=X=X=X=X=X=X=X=X=X=X=X=X=X|.g.7.5.=X=X=X=XO.X.t # =X=X=X=X=X=X=X=X=X=X=X=X=X=X=X=X=X=X=X=X",
"=X=X=X=X=X=X=X=X=X=X=X=X=X=X=X=X=X=X=X=X=X=X=X=X=X=X=X=X=X=X=X=Xz.6.1.-.=X=X=X=X,.o.t # =X=X=X=X=X=X=X=X=X=X=X=X=X=X=X=X=X=X=X=X",
"=X=X=X=X=X=X=X=X>.w.g. XoX Xe.X.t @ =X=X=X=X=X=X=X=X=X=XN S d.g.8.1.m 0 =X=X=X=X=X=X$ # =X=X=X=X=X=X=X=X|.}.}.k.<.>.=X=X=X=X=X=X",
"=X=X=X=X=X=X=X=X>.<.6.j..X|.9.>.f t =X=X=X=X=X=X=X=X=X=XB D f.0.>.v G B =X=X=X=X=X=X# # =X=X=X=X=X=X=X=X8.6.j.l.w.>.=X=X=X=X=X=X",
"=X=X=X=X=X=X=X=X=X=X<.e.j.|.h.9.>.j % @ =X=X! ! W W ! ! Q T f.6.X.i H R C 9 9 N N 5 = & =X=X=X=X=X=X>.+.h h =X=X=X=X>.>.=X=X=X=X",
"=X=X=X=X=X=X=X=X=X=X>.<.6.h.}.0.$.h u p =X=X_ _ _ _ ! ^ ~ r.x.6.f u x P L Z Z B N 8 ; - =X=X=X=X=X=X>.+.t @ =X=X=X=X>.>.=X=X=X=X",
"=X=X=X=X=X=X=X=X=X=X=X=X#.8.z.q.X.u x P E _  .B.N.} _ U t.&.z.g.$.h u c / { W L B 9 8 8 9 9 =X=X,.>.=X=X=X=X# @ =X=X=X=X=X=X=X=X",
"=X=X=X=X=X=X=X=X=X=X=X=X@.<.q.7.k l E { b.F.H.C.C.} ! J -.@.9.q.#.X.% y ( | W L Z Z Z Z Z C =X=Xo.o.=X=X=X=X# # =X=X=X=X=X=X=X=X",
"=X=X=X=X=X=X>.>.>.>.>.>.@.>.w.2.Y E { A.^./.Q.H.b.W A q u s @.w.<.O.% r V Z Z Z L ^ { ` W L C 6 p t =X=X=X=X$ & =X=X=X=X=X=X=X=X",
"=X=X=X=X=X=X<.<.<.<.w.<.#.#.:.t.^  .A.!.[.{.~.K.[ Q Z 0 7 u j O.O.h r ; 8 N N Z E [ A.A.v.^ K 0 : = =X=X=X=X# & =X=X=X=X=X=X=X=X",
"=X=X=X=X>.<.6.g.g.g.k.g.h.d.u./ { A._.[.].~.I.B._ W Q I P x u % % r 4 8 9 V A Q E b.^.'.K.{ ! K 0 4 - # # # =X=X=X=X=X=X=X=X=X=X",
"=X=X=X=Xe.9.j.|.|.}.}.}.h.f.p.} A.!.[.[.Q.T.I.K.b.[ _ _ ` ( c M M l G C Z R ' [ _ M.^./.I.N._ E C 8 - & t t =X=X=X=X=X=X=X=X=X=X",
"=X=X>.e.l..XXXXX|.}.}.z.8.i.a.A./.[.'.~.P.I.'._.T.H.V.N.N.n.F.c.c.c.^ W _ B.H.H.N.n.b.m.C.N._ R C 9 =X=Xo.f t + =X=X=X=X=X=X=X=X",
"=X=X>.<.q.l.j.z.g.h.h.8.@.;.a.D.{.$X~.I.I.!.$X%X].Q.D.Z.D.U.).(.).Y.F.[ n.A.Q.).Q.A.M.` v.v._ R C N =X=X5.$.X.a =X=X=X=X=X=X=X=X",
"=X=X=X=Xh h h X.,.<.5.>.s b s.!.$X$XI.!._.$X&X&X%X'.I.A.P.~.[.{.).E.T.G.| n._.%X$X/.C.} ` _ _ R C 9 =X=Xz.g.6.$.d @ =X=X=X=X=X=X",
"=X=X=X=X@ @ + t o.>.+.f $ i ] I.$X[.D.D.'.$X&X&X&X[.I.D.Q.].%X%X].(.(.L.[ c.`.&X&X'.I.N.^ E W E C 3 =X=Xj.|.|.6.X.t =X=X=X=X=X=X",
"=X=X=X=X=X=X=X=X=X=Xg $ @ l ] !.$X[.I.P.E.].%X&X*X[.I.P.'.%X&X&X%X$X%X^.[ [ `.%X].~.D.} L Z E E C 3 =X=X=X=X|.0.,.X.=X=X=X=X=X=X",
"=X=X=X=X=X=X=X=X=X=Xt t % b / K._._.A.C.Y.(.[.%X$X'.A.A.].%X&X&X&X&X&X^.F.c./.{.).R.D. .K C Q E C < =X=X=X=X}.g.#.>.=X=X=X=X=X=X",
"=X=X=X=X=X=X=X=X=X=XX.+.O.*.~ | A.A.| | H.~.(.(.(.Q.b.b.T.].%X&X&X%X].T.[ [ L.(.~.R.D.{ Z C E E C 2 =X=X=X=X=X=X$.>.=X=X=X=X=X=X",
"=X=X=X=X=X=X=X=X=X=X+.O.+.*.U _ v.{ W ' H.E.E.E.T.G.' ' G.~.].%X%X].~.G.' ' G.R.R.P.D.} K B K L C , =X=X=X=X=X=X>.>.=X=X=X=X=X=X",
"=X=X=X=X=X=X=X=X|.6.h t % i P _ _ W Z L n.P.R.R.P.n.K L } P.Q.(.(.~.I.n.I L b.P.D.D.S.{ K N B C B , =X=X=X=X=X=X=X=X=X=X=X=X=X=X",
"=X=X=X=X=X=X=X=X6.#.s + @ > H W ! E C Z ` C.I.I.D. .K Z  .D.U.R.R.P.C.` Z K { S.S.Z.N.{ Z 9 q z z 6 * =X=X=X=X=X=X=X=X=X=X=X=X=X",
"=X=X=X=X=X=X|.6.X.a =X=X=X=XB Z E E C C W  .C.D.S. .Z Z { S.S.D.S.C.{ E C A  .S.S.N. .W C q n *.*.k e O =X=X=X=X=X=X=X=X=X=X=X=X",
"=X=X=X=X=X=Xh.8.s @ =X=X=X=X5 V L L Z Z L W  .N.N.` Z Z [ N.N.N.N. ._ R B Z _ N.N.M.( U J F 3.e.5.>.s t e =X=X=X=X=X=X=X=X=X=X=X",
"=X=X=X=X=X=X7.<.=X=X=X=X# # e : 0 Z R L Z K ^ _ ` W C C W _ _ _ _ _ ) R C C E _ { ( t.4.d.|. X|.j.8.>.+.+.h t @ =X=X=X=X=X=X=X=X",
"=X=X=X=X=X=Xo.X.=X=X=X=Xt + + = 4 0 L L C B K E W E K Z L E W ^ W W E I Z K W ^ E y.3.0.XX+XOX.X}.6.7.5.5.>.s e =X=X=X=X=X=X=X=X",
"=X=X=X=X>.O.g t =X=X|.g.=X=X=Xo = : 0 C N N B Z E ) W L Z Z E ) W E Z Z R E ! U ;.3.l.XX@X#X+X|.8.7.6.z.g.8.>.h t # =X=X=X=X=X=X",
"=X=X=X=Xe.>.s $ =X=Xk.g.=X=X=X=X+ = 5 < < < 9 C K E E L C B K E E L B B L E ~ u.3.9.}.XX@X#XOX}.8.7.j. X X}.8.=.t & =X=X=X=X=X=X",
"=X=Xj.j.g.9.>.j t d >.%.=X=X=X=X@ # * =X=X  9 B C C C C N N C C C C B N B H ;.i.l.}.6.0.XXOX.X}.z.j..XXXoX.Xj.%.d # =X=X=X=X=X=X",
"=X=X|.j.j.6.>.j t t o.>.=X=X=X=Xt t w =X=X=X1 < 9 2 2 2 , 2 2 2 2 2 , , 1 6 k >.q.k.$.#.|.XX|.}.|.|. X|.j.j.|.6.s # =X=X=X=X=X=X",
"=X=X|.j.9.>.s t =X=X=X=X,.o.t t h +.+.+.=X=X=X=X=X=X=X=X=X=X=X=X=X=X=X=X=X* e d j a . k |.XX|.|..X Xq.<.o.=.g.9.s @ =X=X=X=X=X=X",
"=X=Xg.8.>.j e # =X=X=X=X>.o.t t o.,.>.>.=X=X=X=X=X=X=X=X=X=X=X=X=X=X=X=X=X=XO + @ O X v |.XX.X|. Xz.>.f $ a %.7.a @ =X=X=X=X=X=X",
"=X=X7.>.f e =X=X=X=X=X=X=X=X=X=X=X=X=X=X>.+.=X=X=X=X=X=X=X=X=X=X=X=X=X=X=X=X=X=X=X=Xj %.|.oXoX|.q.>.j $ =X=X<.=.t & =X=X=X=X=X=X",
"=X=Xo.h t @ =X=X=X=X=X=X=X=X=X=X=X=X=X=X>.>.=X=X=X=X=X=X=X=X=X=X=X=X=X=X=X=X=X=X=X=X=.e.|.OXoXj.,.f e + =X=Xo.j t # =X=X=X=X=X=X",
"=X=Xt t =X=X=X=X=X=X=X=X=X=X=X=X|.g.<.>.=X=X=X=X=X=X=X=X=X=X=X=X=X=X=X=X=X=X=X=X=X=X>.e.|.OX.Xg.X.$ + =X=X=Xt t =X=X=X=X=X=X=X=X",
"=X=X# # =X=X=X=X=X=X=X=X=X=X=X=X}.g.w.>.=X=X=X=X=X=X=X=X=X=X=X=X=X=X=X=X=X=X=X=X=X=XX.<.}. Xg.$.d + =X=X=X=X# # =X=X=X=X=X=X=X=X",
"=X=X=X=X=X=X=X=X=X=X=X=X=X=X=X=X=X=X=X=X=X=X=X=X=X=X=X=X=X=X=X=X=X=X=X=X=X=X=X=X=X=Xt X.k.g.+.a =X=X=X=X=X=X=X=X=X=X=X=X=X=X=X=X",
"=X=X=X=X=X=X=X=X=X=X=X=X=X=X=X=X=X=X=X=X=X=X=X=X=X=X=X=X=X=X=X=X=X=X=X=X=X=X=X=X=X=X@ a #.#.a + =X=X=X=X=X=X=X=X=X=X=X=X=X=X=X=X",
"=X=X=X=X=X=X=X=X=X=X=X=X=X=X=X=X=X=X=X=X=X=X=X=X=X=X=X=X=X=X=X=X=X=X=X=X=X=X=X=X=X=X=X=Xa a =X=X=X=X=X=X=X=X=X=X=X=X=X=X=X=X=X=X",
"=X=X=X=X=X=X=X=X=X=X=X=X=X=X=X=X=X=X=X=X=X=X=X=X=X=X=X=X=X=X=X=X=X=X=X=X=X=X=X=X=X=X=X=X# # =X=X=X=X=X=X=X=X=X=X=X=X=X=X=X=X=X=X",
"=X=X=X=X=X=X=X=X=X=X=X=X=X=X=X=X=X=X=X=X=X=X=X=X=X=X=X=X=X=X=X=X=X=X=X=X=X=X=X=X=X=X=X=X=X=X=X=X=X=X=X=X=X=X=X=X=X=X=X=X=X=X=X=X",
"=X=X=X=X=X=X=X=X=X=X=X=X=X=X=X=X=X=X=X=X=X=X=X=X=X=X=X=X=X=X=X=X=X=X=X=X=X=X=X=X=X=X=X=X=X=X=X=X=X=X=X=X=X=X=X=X=X=X=X=X=X=X=X=X",
"=X=X=X=X=X=X=X=X=X=X=X=X=X=X=X=X=X=X=X=X=X=X=X=X=X=X=X=X=X=X=X=X=X=X=X=X=X=X=X=X=X=X=X=X=X=X=X=X=X=X=X=X=X=X=X=X=X=X=X=X=X=X=X=X",
"=X=X=X=X=X=X=X=X=X=X=X=X=X=X=X=X=X=X=X=X=X=X=X=X=X=X=X=X=X=X=X=X=X=X=X=X=X=X=X=X=X=X=X=X=X=X=X=X=X=X=X=X=X=X=X=X=X=X=X=X=X=X=X=X",
"=X=X=X=X=X=X=X=X=X=X=X=X=X=X=X=X=X=X=X=X=X=X=X=X=X=X=X=X=X=X=X=X=X=X=X=X=X=X=X=X=X=X=X=X=X=X=X=X=X=X=X=X=X=X=X=X=X=X=X=X=X=X=X=X",
"=X=X=X=X=X=X=X=X=X=X=X=X=X=X=X=X=X=X=X=X=X=X=X=X=X=X=X=X=X=X=X=X=X=X=X=X=X=X=X=X=X=X=X=X=X=X=X=X=X=X=X=X=X=X=X=X=X=X=X=X=X=X=X=X",
"=X=X=X=X=X=X=X=X=X=X=X=X=X=X=X=X=X=X=X=X=X=X=X=X=X=X=X=X=X=X=X=X=X=X=X=X=X=X=X=X=X=X=X=X=X=X=X=X=X=X=X=X=X=X=X=X=X=X=X=X=X=X=X=X",
"=X=X=X=X=X=X=X=X=X=X=X=X=X=X=X=X=X=X=X=X=X=X=X=X=X=X=X=X=X=X=X=X=X=X=X=X=X=X=X=X=X=X=X=X=X=X=X=X=X=X=X=X=X=X=X=X=X=X=X=X=X=X=X=X"
};
