/* XPM */
static char *result[] = {
/* columns rows colors chars-per-pixel */
"64 64 65 1 ",
"  c #3C2E24",
". c #3F3026",
"X c #413227",
"o c #44352A",
"O c #47382B",
"+ c #4C3B2D",
"@ c #503E2F",
"# c #4E3D31",
"$ c #503E31",
"% c #50402E",
"& c #554333",
"* c #584535",
"= c #5F4A35",
"- c #564339",
"; c #59463A",
": c #5D483C",
"> c #614B37",
", c #624C3D",
"< c #62513B",
"1 c #6B543B",
"2 c #70573E",
"3 c #725A3F",
"4 c #5F4A40",
"5 c #604B40",
"6 c #675041",
"7 c #6A5241",
"8 c #6F5B43",
"9 c #745B42",
"0 c #795E42",
"q c #746040",
"w c #7B6244",
"e c #7F6945",
"r c #76614B",
"t c #7A654B",
"y c #7C6650",
"u c #826746",
"i c #846947",
"p c #896942",
"a c #856A48",
"s c #886F4E",
"d c #867149",
"f c #8C754C",
"g c #92754B",
"h c #816A50",
"j c #8D7350",
"k c #907551",
"l c #967D51",
"z c #9C7D52",
"x c #9C8354",
"c c #9D8259",
"v c #A18758",
"b c #AC9364",
"n c #AF976A",
"m c #AF986A",
"M c #B09764",
"N c #B39A66",
"B c #B1996A",
"V c #B89D6A",
"C c #B79E70",
"Z c #B89F71",
"A c #BEA371",
"S c #C2A571",
"D c #CCB27A",
"F c #D7BC82",
"G c #D8BD83",
/* pixels */
"ppsppppppppppppppppppppppppppppppppppppppppppppppppppppppppppppp",
"ppggzxzzzzzzzzzzzzzzzzzzzzzzzzzzzzzzzzzzzzzzzzzzzzzzzzzzzzzzgpgp",
"ppgvVSSSSSSSSSSSSSSSSSSSSSSSSSSSSSSSSSSSSSSSSSSSSSASSSSSSSSVvgpp",
"pgvNADFGFFFFFFFFFFFFFFFFGGGDFFFFFFFFFGGDFFFFFFFFFFFFFFFFFFDSVvgp",
"pzVSMNDGGGFFFFFFFFFFFFFFFFFFFFFFFFFFFFFFFFFFFFFFFFFFFFFFGDNMSVzp",
"pzDDNbmCZZASAAAAASAAAAASASAAAAAAAAAASAASSZSAZSSZSZAAAAASSVbNDSzp",
"pzSDDNs9rhjkkkjkkkkkkkkkkjkjkjkjkkjkkkkjkkkgkkkkkkkkkkkjjcVDFSzp",
"pzSGDS9#$,13909003090030000000000000090009000090030000033jSFFSzp",
"azSGGC8#$;,1900000000000300000000000000000000000000000030kSFFSzp",
"pxSGGV9#@-;,709909999999099999997099999999999099999999093kZFFSzp",
"pzSGGV9#@$*;5676757557575757,75775,75765,6,65666,666,6679kSFFSzp",
"pzAGGm8O+++$-----::555555,555554555,55,555555555555555553kSFFSzp",
"pzSFGB1.XoXooooOo+;5555,5555,45455555555555555555555555,9kSFFSzp",
"pzSGGn<.XO+%%*%@oo-,:::::::::;:::::::::::::::::5:;:::::,,sZFFSzp",
"pzSFGB<X$:<3udfq@o$**-$&&&-$&&&&-&**$*-**$**$-*$$;$*$*-&*wZGFSzp",
"pzSGGm<o-79ugxvd&X+$$$&-&-&&&-&-&$&$*$$*$**$*$$**$*$&&&&*wVFFSzp",
"pzSGGn<o-79wufxd&X+&%&;:::::::::::;:::;:::;:::;:,::::::,,sZGGSzp",
"pzSGGB<X-,902wld*X+%&&;:555544555555555555555555555555,59kAFFSzp",
"pzSFGB<XO:23>1gd*X%%&&&;445555555545554554455455555555563kAFFSzp",
"pzSFGn<X#=99>1fd*.O%+++#&;;;444554555455555555455555555,3kSFFSzp",
"pzSGGB<X&,903wld&..oXoXXOoO#:5555555555555555555545555569kSFFSzp",
"pzSGGn<o-790wuld&.oOO%%&%%oo-4445445554554545445554554552kSFFSzp",
"pzSGGn<o-,903pld*o%:<3adfq&X#;:55555555455555555555555557kSFDSzp",
"pzSGGn<o-79wwald&o;79agxxd&XO&;:::;::;::::;:::,,:;:::;:,1sSGGSzp",
"pzSFGB<o-79w0ald&o*19wafxd%o+&&&$$-*$*$*$;$*$;;$*$$**$$&&0ZFGSzp",
"pzSGGm<X-5900ala*o-<993wgd%o+&&%$$$$-*-$$$;$*$$$$*-$$**$*tVFGSzp",
"pzSFGm<o-6900ald&o+:33>1gd=X+&&%*$,4::,:::::,:::,,::5::,,sSFFSzp",
"pzSGGn<o-79wwuld&.%:33>1fd*XO+++$$$4;;5555555555555555563kSFFSzp",
"pzSGGn<o-5900ald&o&58q3wxd&X.oooooOOO#;5555555555554,5562kSFFSzp",
"pzSGGn,o-7900ald&o-79w0axd*.XooO+++OXo$555555545555555559kAFFSzp",
"pzSFGB<o-6900azd&.*79wqafd%.%%&:,22>Oo$:55554554455455552kSFFSzp",
"pzSFGn<o-6900ala&O*79w0axd&.%%;69301+o#$-:545555555555567jZFFSzp",
"pzSGGm<o$63u0ald*o-6900axd&oO-456901@X+$*-,5555555555555,hZGFSzp",
"pzSGGn<o-6030ala&o-6900axd&.+&;4-,31+o@$$*;::4,;:;:::::;:rZGFSzp",
"pzSGGB<o-69w0ald&o-6900ple*.O%4;$*72+X@@$$*$-**-&-$*$*-$$9ZGGSzp",
"pzSGGn,o-69w3ald&o-79w3axd&.o%;;$*32@oO@++##+++$$-*$&&&&*0ZFGSzp",
"pzSFGB<o-6900ald*o&79w0ald&.O&;4;,31@ XooooooXo+*:5::::,1sAFFSzp",
"pzSFGn<o-6900ald*o;63w0ale*.%*:45601+XXXXooOOoXo-,5555577kAFFSzp",
"pzSGGB,o;6900uxa&o&63wqexd&.O-:55601+Xoo#$$;;$oo$*:554553kAFFSzp",
"pzSGGn<o-6900uld&o-630qexd%%%*:55631+Xo+$$455;oo+-;:,4457jAFFAzp",
"pzSFGn<o-7900ald&o-6qqwixe%.%&:55791+XX+@%&=4-oo+$&*454,,hZGFSzp",
"pzSGGn<o-7900ald&O-69w0ixd%O%&:55691+XX+@@$$4;Oo@&$-::444hZGFSzp",
"pzSFGn<X-59w0ald&.;6900axe&.%&:55601+XXo+#o+;;Oo+&$&$;:,:yZGFSzp",
"pzSFGB<o-6900ala&O-7900ixd&O%%::5691@ Xo$$OO;;OXO++#+$---0ZGFSzp",
"pzSGGn<o-7900ild&O-6000ile&.%&:45691+XoO@$+&;;OXooooooooo7VGGSzp",
"pzSGGB<o-7900ild&o-6900ixd&.+*:55791+Xo+@&&&:;o.XXXXoooX <nGGSzp",
"pzSGGm<o-5900ald&O-69w0ixe&o+&:45791@Xo+@$&&:;OXoOoO+++O.<nGFSza",
"pzSGGB,o-69w0ild&o-6900ixd&.+-445501+Xo+$$@-:;OXOOOO+$&+X<nFFSzp",
"pzSFGB<o-5900als=o-69w0ald%XO*:5,731+XX+@$@-4-ooOOOO++@+X1nGGSzp",
"pzSFGm<o-69w0ald&o-690wuld%o#&:45731+Xo+@&%&4;OXoOOOo+@+.>BGGSzp",
"pzSGGm<o-6900ald&o-6900axd=.O*:55632+Xo+$$--:-O..oOOXO@+X>NGFSzp",
"pzSGGn<o-6900ala&o-69w0uld*X%*:55631+Xo+@&$$4;O..oooXo@+X1NFGSzp",
"pzSFGn<o-7300ala&o;6900ald&X%&:55791+Xo+@&@*:;oXooOoo+@+X<BGGSzp",
"pzSGGB<o-19wwaxd&o;<9wwaxd*.%&:55601@Xo+$$@-,-OXo++OO+@+X<nGFSzp",
"pzSFGB<o-79w0ald*o-79w3pld&.%&:55691@Xo+@$%*:;OXO+O+O+@+X<nGFSzp",
"pzSFGB>.#;>113eq+X$=,113e3% .%&-$>,>O XOO++$-$o XXXoXo+o <BGGSzp",
"pzSGGm= .oOO++%+o XOO+O+%+XXXXooOo+OX  XoXXXooX  X X XXX >NGGSvp",
"pxDDDmt<,<<<<<<<<<,><<<<<<,<<<<,,6<,,<<<<<,><<<<<<<<<<<,<tnDDSzp",
"pzSDNbBVmmmBmnnnBBBnNmmnnnBnMnBBBnnBBnBBnnnnBnBnnnnNMnBBmnbNDSzp",
"pzVAMNDGGGGGGGGGGGGGGGGGGGGGGGGGGGGGGGGGGGGGGGGGGGGGGGGGGDNbSVzp",
"pgvNADDGGGFFGGGGFFGFGGGDGGGGFFFFGGGDGGGGFGGGGGGGGGGGFFFGGDDSNvgp",
"ppgvVSSSSSSSSSSSSSSSSSSSSSSSSSSSSSSSSSSSSSSSSSSSSSSSSSSSSSSVvgpp",
"ppfgzzzzzzzzzzzzzzzzvzzzzzzzzzzzvzzzzzzzzzzzzzzzzzzzzzzzvzzzgggp",
"pppppppppppppppppppppppppppppppppppppppppppppppppppppppppppppppp"
};
