/* XPM */
static char *result[] = {
/* columns rows colors chars-per-pixel */
"64 64 37 1 ",
"  c #7D5B2C",
". c #775321",
"X c #6C450B",
"o c #693F00",
"O c #6E4300",
"+ c #714500",
"@ c #6F4400",
"# c #6D4200",
"$ c #6C4100",
"% c #6D450B",
"& c #6A4000",
"* c #704400",
"= c #734600",
"- c #724500",
"; c #6F4300",
": c #775421",
"> c #6E460B",
", c #744600",
"< c #784900",
"1 c #764800",
"2 c #785421",
"3 c #6E4200",
"4 c #764700",
"5 c #7B4A00",
"6 c #7A4A00",
"7 c #6D450A",
"8 c #6B4000",
"9 c #775320",
"0 c #6B440A",
"q c #673D00",
"w c #805E30",
"e c #7A5727",
"r c #704A14",
"t c #846338",
"y c #815F32",
"u c #87663C",
"i c white",
/* pixels */
" .XoO++++++++++++++++++++++++++++++++++++++++++++++++++++++++@#$",
" .%&*========================================================-;#",
" :>$,<<<<<<<<<<<<<<<<<<<<<<<<<<<<<<<<<<<<<<<<<<<<<<<<<<<<<<<<1-@",
" 2>3456666666666666666666666666666666666666666666666666666666<=+",
" 2>3456666666666666666666666666666666666666666666666666666666<=+",
" 2>#466666666666666666666666666666666666666666666666666666666<=+",
" 2>#466666666666666666666666666666666666666666666666666666666<=+",
" 2>#466666666666666666666666666666666666666666666666666666666<=+",
" 2>#466666666666666666666666666666666666666666666666666666666<=+",
" 2>#466666666666666666666666666666666666666666666666666666666<=+",
" 2>#466666666666666666666666666666666666666666666666666666666<=+",
" 2>#466666666666666666666666666666666666666666666666666666666<=+",
" 2>#466666666666666666666666666666666666666666666666666666666<=+",
" 2>#466666666666666666666666666666666666666666666666666666666<=+",
" 2>#466666666666666666666666666666666666666666666666666666666<=+",
" 2>#466666666666666666666666666666666666666666666666666666666<=+",
" 2>#466666666666666666666666666666666666666666666666666666666<=+",
" 2>#466666666666666666666666666666666666666666666666666666666<=+",
" 2>#466666666666666666666666666666666666666666666666666666666<=+",
" 2>#466666666666666666666666666666666666666666666666666666666<=+",
" 2>#466666666666666666666666666666666666666666666666666666666<=+",
" 2>#466666666666666666666666666666666666666666666666666666666<=+",
" 2>#466666666666666666666666666666666666666666666666666666666<=+",
" 2>#466666666666666666666666666666666666666666666666666666666<=+",
" 2>#466666666666666666666666666666666666666666666666666666666<=+",
" 2>#466666666666666666666666666666666666666666666666666666666<=+",
" 2>#466666666666666666666666666666666666666666666666666666666<=+",
" 2>#466666666666666666666666666666666666666666666666666666666<=+",
" 2>#466666666666666666666666666666666666666666666666666666666<=+",
" 2>#466666666666666666666666666666666666666666666666666666666<=+",
" 2>#466666666666666666666666666666666666666666666666666666666<=+",
" 2>#466666666666666666666666666666666666666666666666666666666<=+",
" 2>#466666666666666666666666666666666666666666666666666666666<=+",
" 2>#466666666666666666666666666666666666666666666666666666666<=+",
" 2>#466666666666666666666666666666666666666666666666666666666<=+",
" 2>#466666666666666666666666666666666666666666666666666666666<=+",
" 2>#466666666666666666666666666666666666666666666666666666666<=+",
" 2>#466666666666666666666666666666666666666666666666666666666<=+",
" 2>#466666666666666666666666666666666666666666666666666666666<=+",
" 2>#466666666666666666666666666666666666666666666666666666666<=+",
" 2>#466666666666666666666666666666666666666666666666666666666<=+",
" 2>#466666666666666666666666666666666666666666666666666666666<=+",
" 2>#466666666666666666666666666666666666666666666666666666666<=+",
" 2>#466666666666666666666666666666666666666666666666666666666<=+",
" 2>#466666666666666666666666666666666666666666666666666666666<=+",
" 2>#466666666666666666666666666666666666666666666666666666666<=+",
" 2>#466666666666666666666666666666666666666666666666666666666<=+",
" 2>#466666666666666666666666666666666666666666666666666666666<=+",
" 2>#466666666666666666666666666666666666666666666666666666666<=+",
" 2>#466666666666666666666666666666666666666666666666666666666<=+",
" 2>#466666666666666666666666666666666666666666666666666666666<=+",
" 2>#466666666666666666666666666666666666666666666666666666666<=+",
" 2>#466666666666666666666666666666666666666666666666666666666<=+",
" 2>#466666666666666666666666666666666666666666666666666666666<=+",
" 2>#466666666666666666666666666666666666666666666666666666666<=+",
" 2>#466666666666666666666666666666666666666666666666666666666<=+",
" 2>#466666666666666666666666666666666666666666666666666666666<=+",
" 2>3456666666666666666666666666666666666666666666666666666666<=+",
" 2>3455666666666666666666666666666666666666666666666666666655<=+",
" .78-44444444444444444444444444444444444444444444444444444444,*O",
" 90q833####################################################33$&o",
"wer07>>>>>>>>>>>>>>>>>>>>>>>>>>>>>>>>>>>>>>>>>>>>>>>>>>>>>>>>>%X",
"tye9.22222222222222222222222222222222222222222222222222222222:..",
"utw                                                             "
};
