/* XPM */
static char *result[] = {
/* columns rows colors chars-per-pixel */
"64 64 188 2 ",
"   c #595551",
".  c #595652",
"X  c #53504C",
"o  c #484542",
"O  c #423F3D",
"+  c #423F3E",
"@  c #43403E",
"#  c #585551",
"$  c #585550",
"%  c #575450",
"&  c #5C5A56",
"*  c #646463",
"=  c #696A6A",
"-  c #686A69",
";  c #696A6B",
":  c #656564",
">  c #5C5A57",
",  c #5D5B58",
"<  c #575552",
"1  c #4D4A47",
"2  c #474442",
"3  c #474441",
"4  c #44413F",
"5  c #464341",
"6  c #4D4A48",
"7  c #585653",
"8  c #5E5C59",
"9  c #625E5D",
"0  c #63605F",
"q  c #635F5E",
"w  c #666363",
"e  c #6C6B6C",
"r  c #706F71",
"t  c #6E6E6F",
"y  c #6A6B6B",
"u  c #666665",
"i  c #5F5E5C",
"p  c #60605E",
"a  c #53504D",
"s  c #4F4C49",
"d  c #4F4C48",
"f  c #585552",
"g  c #61605E",
"h  c #696869",
"j  c #747074",
"k  c #7A747A",
"l  c #79747A",
"z  c #797479",
"x  c #7A757B",
"c  c #7C787E",
"v  c #7E7980",
"b  c #78757A",
"n  c #6D6D6F",
"m  c #686969",
"M  c #676868",
"N  c #656665",
"B  c #706F72",
"V  c #707072",
"C  c #6B6A6B",
"Z  c #62605E",
"A  c #5D5B57",
"S  c #4E4B48",
"D  c #44413E",
"F  c #615F5D",
"G  c #666766",
"H  c #6B6C6C",
"J  c #6E6E70",
"K  c #6F6F71",
"L  c #757377",
"P  c #807B83",
"I  c #867F89",
"U  c #857F89",
"Y  c #857F88",
"T  c #807B82",
"R  c #757376",
"E  c #6F6E70",
"W  c #7E7A81",
"Q  c #787579",
"!  c #646563",
"~  c #61615F",
"^  c #464340",
"/  c #4F4B48",
"(  c #686968",
")  c #79767B",
"_  c #7F7B82",
"`  c #837D86",
"'  c #847E88",
"]  c #857E88",
"[  c #7F7A82",
"{  c #7D7980",
"}  c #6A6B6C",
"|  c #55524E",
" . c #4C4946",
".. c #676766",
"X. c #847E87",
"o. c #78767B",
"O. c #696B6B",
"+. c #54514E",
"@. c #61605F",
"#. c #656565",
"$. c #595651",
"%. c #7D797F",
"&. c #7F7A81",
"*. c #827D85",
"=. c #747276",
"-. c #626260",
";. c #6D6D6E",
":. c #6A6A6B",
">. c #5B5854",
",. c #605F5C",
"<. c #6B6C6D",
"1. c #676968",
"2. c #464240",
"3. c #585450",
"4. c #79767C",
"5. c #6F6F70",
"6. c #837E86",
"7. c #54514D",
"8. c #4A4745",
"9. c #504D4A",
"0. c #5C5956",
"q. c #626160",
"w. c #646564",
"e. c #6A6869",
"r. c #757175",
"t. c #7B767C",
"y. c #7E7A80",
"u. c #7D787F",
"i. c #5C5B57",
"p. c #4C4947",
"a. c #4B4845",
"s. c #4A4744",
"d. c #55514E",
"f. c #5A5753",
"g. c #676464",
"h. c #6D6C6D",
"j. c #64605F",
"k. c #625F5D",
"l. c #4B4846",
"z. c #5A5754",
"x. c #4C4A47",
"c. c #57544F",
"v. c #575451",
"b. c #605F5E",
"n. c #575551",
"m. c #524F4B",
"M. c #4C4945",
"N. c #595753",
"B. c #5B5956",
"V. c #5B5955",
"C. c #62615F",
"Z. c #524F4C",
"A. c #605E5C",
"S. c #78757B",
"D. c #6A6969",
"F. c #7B767D",
"G. c #757378",
"H. c #6B6B6C",
"J. c #696A69",
"K. c DimGray",
"L. c #61605D",
"P. c #4D4B48",
"I. c #484543",
"U. c #504D49",
"Y. c #717073",
"T. c #717072",
"R. c #454240",
"E. c #534F4C",
"W. c #565451",
"Q. c #5C5B5A",
"!. c #5F5F5F",
"~. c #5F5F5E",
"^. c #5F605F",
"/. c #5C5C5A",
"(. c #5D5A57",
"). c #4C4846",
"_. c #484643",
"`. c #4A4846",
"'. c #4B4948",
"]. c #4C4A48",
"[. c #4B4947",
"{. c #494644",
"}. c #635F5F",
"|. c gray40",
" X c #6A696A",
".X c #777479",
"XX c #5B5853",
"oX c white",
/* pixels */
"  . . X o O O O O O O + @ @ @ @ @ @ O o X . .             # # $ $ $ $ % % & * = - - = = ; : > # #                               ",
"> , , < 1 2 o o o o o 3 4 @ @ @ @ 4 5 6 7 , , > > > > > > 8 9 0 0 q q q q w e r r t y = = u i > > > > > > > > > > > > > > > > > ",
"* : : p < X X X X a a s 5 O @ @ O 5 d f g : : * * * * * * h j k l l l l z x c v v b n m m M N * * * * * * * * * * * * * * * * * ",
"B V V C Z A , , , 8 8 7 S 5 4 D 5 6 7 F G H J B B B B r K L P I U Y Y Y Y Y Y Y Y T R E K r r B B B B B B B B B B B B B B B B B ",
"v W W Q C ! : N N u u ~ 7 s 5 ^ / 7 ~ G ( t ) W W v v v v _ ` Y Y Y Y Y Y Y ' ' ] ` [ { { v v v v v v v v v v v v v v v v v v v ",
"] Y Y T L t } = = y y u 8 |  .1 f F ..H t L T Y Y Y Y Y Y ' X.X.X.X.X.X.X.X.X.X.X.X.' ] ] Y Y Y Y Y Y Y Y Y Y Y Y Y Y ] ] ] ] ] ",
"X.' ] ` P o.t - = O.y N , % +.7 @.G m J o.T ` Y Y Y Y Y ] X.X.X.X.X.X.X.X.X.X.X.X.X.X.X.X.] Y Y Y Y Y Y Y Y Y Y Y Y ] X.X.X.X.X.",
"X.X.X.X.Y T L t y = O.#., $.$., u O.= r W I Y ` [ { %.&.*.X.X.X.X.X.X.X.X.X.X.X.X.X.X.X.X.*.&.%.%.{ { { { { { %.%.&.*.X.X.X.X.X.",
"X.X.X.X.X.` P ) t = O.u , $.$., u O.= r W I I T R E J =.[ ' X.X.X.X.X.X.X.X.X.X.X.X.X.X.' [ =.J E E K r r K E E J =.[ ' X.X.X.X.",
"X.X.X.' ] ` P ) J m G @.7 +.% > -.G m J ) &.&.o.n = ;.R _ Y Y X.X.X.X.X.X.X.X.X.X.X.X.X.' [ =.J E n :.m m :.n E J =.[ ' X.X.X.X.",
"] ] ] Y Y P L J H ..F f 1  .| >.& ,.G <.E B B t y n b P ` Y Y ] ] ] ] ] ] ] ] ] ] ' X.X.X.*.&.{ { b ;.1.1.;.b { { &.*.X.X.X.' ] ",
"v v v W W Q C : : @.f S 2.5 s | 3.& -.: : ! ! N ( J 4.&.W v v v v v v v v v v v v _ ` Y ] ] Y Y I P L K K L P I Y Y Y Y Y ` _ v ",
"B B B V V C Z , , 7 1 ^ @ @ 5  .| >.> , , > > i G <.5.V B B B B B B B B B B B r K L P U Y Y Y Y Y 6.T v v T 6.Y Y Y Y U I P L K ",
": : : : : p < 7.% |  .2 o o 2 8.9.| 3.. . # # 0.q.: : w.w.: : : : : : : : : : * * e.r.t.%.y.y.v v W W W W W W y.y.u.t.x x r.e.* ",
"i.i.i., , < p.a.+.# | a a a a 9.s. .d.. . . . f.& , , i.i.i.i.i.i.i.i.i.i.i.i.> > 8 9 g.h.V V B B B V V V V B V V h.g.j.j.k.8 > ",
"# # #   $.7.a.l.| . . z.> 8 8 7 x.a.+.. . # # # # # # # # # # # # # # # # # # #   c.X v.b.: : : : : : : : : : : : p n.m.m.7.%   ",
"# # # #   % 7.+.v.. $.& -.u u @.< 7.% $.# # # # $ $ $ # # # # # # # # # # # #   $.7.a. .< , , A , , , , , , A , , < x.5 5 M.7.. ",
"i.i.i.i.i., , > f.N.0.,.G y y G ,.> > 8 9 j.0 0 0 0 j.9 8 > > i.i.i.i.i.i.i.i., , <  .a.7.. $.% 7.X X X X 7.% $.. 7. .3 3 1 < , ",
": : : w.w.: u q.B.V.C.G m = = ( u ! * e.r.x x k k x x r.e.* * : : : : : : : : : : b.v.X c.$.. 7. .2 o o 2  .7.. $.% 7.Z.m.< p : ",
"B B B B B J H u i A.u = = y t r B r K L P I U Y Y U I P L K r B B B B B B B B V V h.g.9 8 , , 7 1 ^ @ @ 5 6 7 , , , , 8 k.g.h.V ",
"v v v W W ) t M u u ( - m n S.W W v v _ ` Y Y Y Y Y Y ` _ v v v v v v v v v v y.y.%.t.r.e.w.: @.f S 2.^ / 7 @.u #.: ! D.r.F.%.W ",
"] ] ] Y Y T L n y } t K K R T Y Y ] ] ' X.X.X.X.X.X.X.X.' ] ] ] ] ] ] ] ] ] ] ] ] Y U P G.J H ..F f 1  .| 8 u y O.H.t L P U Y ] ",
"X.X.X.] ] ` T b ;.n b v v [ ` ] ] X.X.X.X.X.X.X.X.X.X.X.X.X.X.X.X.X.X.X.X.X.X.X.X.] Y 6.P ) J m G @.7 +.% , N O.= J ) P 6.Y ] X.",
"X.X.X.X.X.X.Y [ =.=.[ Y Y ' X.X.X.X.X.X.X.X.X.X.X.X.X.X.X.X.X.X.X.X.X.X.X.X.X.X.X.] ] ` P ) t = O.u , . $., #.= = r W U ] X.X.X.",
"X.X.X.X.X.X.X.` [ [ ` ] ] X.X.X.X.X.X.X.X.X.X.X.X.X.X.X.X.X.X.X.X.X.X.X.X.X.X.X.' Y Y T L t y = O.#., $.. , u O.= r W U ] X.X.X.",
"X.X.X.X.X.X.X.X.] ' X.X.X.X.X.X.X.X.X.X.X.X.X.X.X.X.X.X.X.X.X.X.X.X.X.X.X.] ] ` [ v v S.n m J.= y N , % +.7 @.G m J o.T ` ] ' X.",
"] ] ] ] ] ] ] ] X.X.X.X.X.X.X.X.' ] ] ] ] ] ] ] ] ] ] ] ] ] ] ] ] ] ] ] ] Y Y T R K K t y J.= ; y u 8 |  .1 f F ..H t L T Y Y ] ",
"v v v v v v v _ ` ] ' X.X.' ] ` _ v v v v v v v v v v v v v v v v v v v v W W ) t m - = = = ; K...~ 7 s ^ 2.S f @.G ( t ) W W v ",
"B B B B B r K L T Y Y ] ] Y Y T L K r B B B B B B B B B B B B B B B B B B B B J H.= = = = y y ..L.7 P.5 @ @ ^ 1 7 F G H J B B B ",
": : w.: : ! ! C b &.W W W W &.b C ! ! : : w.: : : : : : : : : : : : : : : ! * ! : : : : : : u @.f S ^ @ 3 I.o s.U.f @.N : w.w.: ",
"i.i.i.A , A A Z e Y.T.V V T.Y.e Z A A , A i.i.i.i.i.i.i.i.i.i.i.i.i.i.i.i.> > > > > > > > , , 7 1 R.@ 5 s +.7.9.s.x.f , , i.i.i.",
"# #   % 7.X E.W.Q.!.!.~.!.^.^./.W.X X 7.%   # # # # # # # # # # # # # # # . V.> > > > (.(.0.f.7.).2 2  .| f.f.| l.a.7.$.  # # # ",
"#   $.7. .2 2 _.`.'.'.'.].].].[.{.o 2  .7.$.  # # # # # # # # $ $ $ $ $ % V.~ : ! ! : : : C.0.c.7.X X | # . . % +.7.%   # # # # ",
"i., , < 1 2 2 2 2 3 2 ^ @ O O O O @ ^ 1 7 , , i.i.i.i.> > 8 9 j.0 0 0 }.q w h.V V J H.= = |.i > A , , , A i.i.A , , A i.i.i.i.i.",
": : : p < E.X X X X X d 5 O O O O 5 / f @.N : w.w.: : * * e.r.x x k k k k t.u.W W ) t - - ( N ! : : : : : w.w.: : : : w.: : : : ",
"B V V C Z A , , , 8 8 7 S 5 4 D 5 6 7 F G H J B B B B r K L P I U Y Y Y Y Y Y Y Y T R E K r r B B B B B B B B B B B B B B B B B ",
"v W W Q C ! : N N u u ~ 7 s 5 ^ / 7 ~ G ( t ) W W v v v v _ ` Y Y Y Y Y Y Y ' ' ] ` [ { { v v v v v v v v v v v v v v v v v v v ",
"] Y Y T L t } = = y y u 8 |  .1 f F ..H t L T Y Y Y Y Y Y ' X.X.X.X.X.X.X.X.X.X.X.X.' ] ] Y Y Y Y Y Y Y Y Y Y Y Y Y Y ] ] ] ] ] ",
"X.' ] ` P o.t - = O.y N , % +.7 @.G m J o.T ` Y Y Y Y Y ] X.X.X.X.X.X.X.X.X.X.X.X.X.X.X.X.] Y Y Y Y Y Y Y Y Y Y Y Y ] X.X.X.X.X.",
"X.X.X.X.Y T L t y = O.#., $.$., u O.= r W I Y ` [ { %.&.*.X.X.X.X.X.X.X.X.X.X.X.X.X.X.X.X.*.&.%.%.{ { { { { { %.%.&.*.X.X.X.X.X.",
"X.X.X.X.X.` P ) t = O.u , $.$., u O.= r W I I T R E J =.[ ' X.X.X.X.X.X.X.X.X.X.X.X.X.X.' [ =.J E E K r r K E E J =.[ ' X.X.X.X.",
"X.X.X.' ] ` P ) J m G @.7 +.% > -.G m J ) &.&.o.n = ;.R _ Y Y X.X.X.X.X.X.X.X.X.X.X.X.X.' [ =.J E n :.m m :.n E J =.[ ' X.X.X.X.",
"] ] ] Y Y P L J H ..F f 1  .| >.& ,.G <.E B B t y n b P ` Y Y ] ] ] ] ] ] ] ] ] ] ' X.X.X.*.&.{ { b ;.1.1.;.b { { &.*.X.X.X.' ] ",
"v v v W W Q C : : @.f S 2.5 s | 3.& -.: : ! ! N ( J 4.&.W v v v v v v v v v v v v _ ` Y ] ] Y Y I P L K K L P I Y Y Y Y Y ` _ v ",
"B B B V V C Z , , 7 1 ^ @ @ 5  .| >.> , , > > i G <.5.V B B B B B B B B B B B r K L P U Y Y Y Y Y 6.T v v T 6.Y Y Y Y U I P L K ",
": : : : : p < 7.% |  .2 o o 2 8.9.| 3.. . # # 0.q.: : w.w.: : : : : : : : : : * * e.r.t.%.y.y.v v W W W W W W y.y.u.t.x x r.e.* ",
"i.i.i., , < p.a.+.# | a a a a 9.s. .d.. . . . f.& , , i.i.i.i.i.i.i.i.i.i.i.i.> > 8 9 g.h.V V B B B V V V V B V V h.g.j.j.k.8 > ",
"# # #   $.7.a.l.| . . z.> 8 8 7 x.a.+.. . # # # # # # # # # # # # # # # # # # #   c.X v.b.: : : : : : : : : : : : p n.m.m.7.%   ",
"# # # #   % 7.+.v.. $.& -.u u @.< 7.% $.# # # # $ $ $ # # # # # # # # # # # #   $.7.a. .< , , A , , , , , , A , , < x.5 5 M.7.. ",
"i.i.i.i.i., , > f.N.0.,.G y y G ,.> > 8 9 j.0 0 0 0 j.9 8 > > i.i.i.i.i.i.i.i., , <  .a.7.. $.% 7.X X X X 7.% $.. 7. .3 3 1 < , ",
": : : w.w.: u q.B.V.C.G m = = ( u ! * e.r.x x k k x x r.e.* * : : : : : : : : : : b.v.X c.$.. 7. .2 o o 2  .7.. $.% 7.Z.m.< p : ",
"B B B B B J H u i A.u = = y t r B r K L P I U Y Y U I P L K r B B B B B B B B V V h.g.9 8 , , 7 1 ^ @ @ 5 6 7 , , , , 8 k.g.h.V ",
"v v v W W ) t M u u ( - m n S.W W v v _ ` Y Y Y Y Y Y ` _ v v v v v v v v v v y.y.%.t.r.e.w.: @.f S 2.^ / 7 @.u #.: ! D.r.F.%.W ",
"] ] ] Y Y T L n y } t K K R T Y Y ] ] ' X.X.X.X.X.X.X.X.' ] ] ] ] ] ] ] ] ] ] ] ] Y U P G.J H ..F f 1  .| 8 u y O.H.t L P U Y ] ",
"X.X.X.] ] ` T b ;.n b v v [ ` ] ] X.X.X.X.X.X.X.X.X.X.X.X.X.X.X.X.X.X.X.X.X.X.X.X.] Y 6.P ) J m G @.7 +.% , N O.= J ) P 6.Y ] X.",
"X.X.X.X.X.X.Y [ =.=.[ Y Y ' X.X.X.X.X.X.X.X.X.X.X.X.X.X.X.X.X.X.X.X.X.X.X.X.X.X.X.] ] ` P ) t = O.u , . $., #.= = r W U ] X.X.X.",
"X.X.X.X.X.X.X.` [ [ ` ] ] X.X.X.X.X.X.X.X.X.X.X.X.X.X.X.X.X.X.X.X.X.X.X.X.X.X.X.' Y Y T L t y = O.#., $.. , u O.= r W U ] X.X.X.",
"X.X.X.X.X.X.X.X.] ' X.X.X.X.X.X.X.X.X.X.X.X.X.X.X.X.X.X.X.X.X.X.X.X.X.X.X.] ] ` [ v v S.n m J.= y N , % +.7 @.G m J o.T ` ] ' X.",
"] ] ] ] ] ] ] ] X.X.X.X.X.X.X.X.' ] ] ] ] ] ] ] ] ] ] ] ] ] ] ] ] ] ] ] ] Y Y T R K K t y J.= ; y u 8 |  .1 f F ..H t L T Y Y ] ",
"v v v v v v v _ ` ] ' X.X.' ] ` _ v v v v v v v v v v v v v v v v v v v v W W ) t m - = = = ; K...~ 7 s ^ 2.S f @.G ( t ) W W v ",
"B B B B B r K L T Y Y ] ] Y Y T L K r B B B B B B B B B B B B B B B B B B B B J H.= = = = y y ..L.7 P.5 @ @ ^ 1 7 F G H J B B B ",
"* * * * * * *  X.Xv v { { v v .X X* * * * * * * * * * * * * * * * * * * * * * ! : : : : : : : g f / 5 4 2 I.I.8.U.f g : : * * * ",
"> > > > > > > F C r r K K r r C F > > > > > > > > > > > > > > > > > > > > > > > , , , , , , , 7 6 5 @ 3 U.+.+.9.s.1 f , , > > > ",
"          # # > ! = - m m - = ! > # #                                                     . . X o O O I.+.XXXX7.2 2 X . .       "
};
