/* XPM */
static char *result[] = {
/* columns rows colors chars-per-pixel */
"64 64 15 1 ",
"  c #313133",
". c #323133",
"X c #363B3A",
"o c #27611D",
"O c #31582C",
"+ c #3A4F3C",
"@ c #2F7021",
"# c #584639",
"$ c #7A6233",
"% c #438233",
"& c #4E8E3E",
"* c #589747",
"= c #8B803F",
"- c #B1A35A",
"; c None",
/* pixels */
";;;;;;;;;;;;;;;;;;;;;;;;;;OOooOOO++X;;;;;;;;;;;;;;;;;;;;;;;;;;;;",
";;;;;;;;;;;;;;;;;;;;;;;oo%o@%@@%@@ooO++X;;;;;;;;;;;;;;;;;;;;;;;;",
";;;;;;;;;;;;;;;;;;;;;oo@%@%&&%%@%@@@oOOO+X;;;;;;;;;;;;;;;;;;;;;;",
";;;;;;;;;;;;;;;;;;;oO@*@*%&**&*%%%@@@oO+++XX;;;;;;;;;;;;;;;;;;;;",
";;;;;;;;;;;;;;;;oooO@%@&%&****&&%&%@%@oOoo+XXXX;;;;;;;;;;;;;;;;;",
";;;;;;;;;;;;;;;o@@Oo%@&%%&&**&*&*%@%@@oOooo+XOO+;;;;;;;;;;;;;;;;",
";;;;;;;;;;;;;oo@%@@@o%*&%&****&*&&&%@@oo@@@o+XOO+X;;;;;;;;;;;;;;",
";;;;;;;;;;;;o@%&%o@@@*&%@%&&***&&&%%%@o@%%@@o++ooO+;;;;;;;;;;;;;",
";;;;;;;;;;;o@**%@@o@%&*&%@%@&*&&&%%%%@@@%%%@oo++OoO+;;;;;;;;;;;;",
";;;;;;;;;;;o&*&%@%@%&**&%o@%&&%&%&%%@o@@@%@%@oOX+O++;;;;;;;;;;;;",
";;;;;;;;;;o@*&*@%@@%****%@%&&%%%%%%@@@%%@@%@@o+oOoO+X;;;;;;;;;;;",
";;;;;;;;;;o@&%%@@%@%****&%*&*&&%%@@%@%&%@%@@oOooOooOOX;;;;;;;;;;",
";;;;;;;;;OoO%%@@%%%&%*&**&&*&&%%%%%&&&%&%@@oooOo+oooOXX;;;;;;;;;",
";;;;;;;;;OO@@@%%@%*&@%*&&%%&&%@%%%@%%&&%@@oOoooOOOooO+X;;;;;;;;;",
";;;;;;;;;Ooo@%&%o&&*%@%%@%&&&&%@@%@@o%@@%@@@o@oOoOooo+XX;;;;;;;;",
";;;;;;;;Oo@@%&*%o&***%@@%&&*&%&%%@%@@@%%@@%%@o@oooO+OO+XX;;;;;;;",
";;;;;;;;o@@%%*&%@%**&%%%&&*&*&&&%%@o@%@&&%%@@@ooo@oO+OX+X;;;;;;;",
";;;;;;;;o@%@&**&%@%**%@%&*&*****&%%@@@&*%%@o@oOo@@@oO+XO+;;;;;;;",
";;;;;;;o@@%%****&%@&*&%@%&*****&*%@@o@@%%@o@oOO@@@@@oO+oO+;;;;;;",
";;;;;;o@@o@%**&%%@%&&&&@o%%&**&*%%@@Oo@@oooooOo@@@@ooOOOo+X;;;;;",
";;;;;o@&@o@@%*&%@o@%*&*%@@%%@%%@%@@oOOoo@o@@@oOo@@@@oOOOoOX;;;;;",
";;;;;o%%@@o@@%&@%@@%&***&%@o@@@@@@oo@oO@@@@%@@@oo@o@oO+Ooo+X;;;;",
";;;;O@&%o@@oo@%%&%%@%&*&**&%@%@%@@@@@o@@@@%%&%@@oo@ooO++OO+X;;;;",
";;;;O@&@o@o@@%&&%%@@%%&*&%@@%&&%%%@%%%%@%%%*%&%@@ooooOX++O+X;;;;",
";;;;O@%@@@o@%&**&%%@@%%%@%%&&**&&%%@%%@%@%&&*%%@%@OoO+X+O++X;;;;",
";;;;O@@o@%o@%*****&%%@%%%%**&&***%%%%%%@%&&*&%@%@@OOOO++++XX;;;;",
";;;o%o@oo%@@%&***&*&%%%%%&***&*&*&%%@%@@%%@%@@%%@ooOoO+X++XX;;;;",
";;;o%ooo@%%o@&&*&*%@%%@%&*&*&%&*&%@%@%@@@@%@@%%@ooOOoO++XX+X;;;;",
";;;o%@Oo%&%%@%&&&%@%&%%%%&&&&%&%%%%@o@@o@@@@%@@o@OoooXOO++XXX;;;",
";;;o@@O@&*&%%@%%@%%&*&&%%@%%%%%%@%@o@@oOo@@o@oo@OoOoO+OOO+X+X;;;",
";;O+@@o%***&%%&%@@&*&**&%%@%@%%@@@o@ooO+OoooooOoOOoO+OoOOXO++X;;",
";;O+o@@%***&&%&&@o&***&*&%%@@@@@@@@@oOooo@@OOOoOOoOOOo@OO+O++X;;",
";;O+o%@@%*&*&%&%%@%&*&*&&&%%@@oo@@@%@%@@o%%@OOOOoO+Oo@ooO+O++X;;",
";;OoO%@@%&*&*&%&&%@%&%&*&%@%%@%@@%%%%@%@%%%%o+OO+Ooo@@oo+O+O+X;;",
";;OoO@@o@%&&%@&*&@%@o@%&%@&&&%&&%&**%%@@@%@@oO+X+oo@ooo++O+O+X;;",
";;OoO@%o@@%%@%**%&&*&%@@o@%***&%&*&**&%@o@ooO+X+O@@o@oO+OO+O+X;;",
";;+Ooo@oo@@%%&*&&&***&%%@%%%*&&%%&*&%%@@oooO++O+Oo@@ooOOoO+X+X;;",
";;+Oo+o@oo@@@%&&&****&%&%@@@%%%oo@%%%@oOOOOooOOOoooooOOoo+++X;;;",
";;;+OoOo@@%@%@%&%*&*&%&*&%@%@@o@%%%%@%@@O+o@@@@ooOOOO+oOOO++X;;;",
";;;X+O+oo@%%%%@%%%&&%&*&&&%%&%&%%&*&%@@@@Oo@%%@@@oO++OOO+++X;;;;",
";;;;XXOOoo@%%@@@%@%@%&&%&%@&&&%&&&*&*%@%@o@%*&@%@OoOX+++++XX;;;;",
";;;;;++Oooo@@@o@o@@%@%%%%%%%&%&**&&&&&%@%o%*&%@@ooOO++O+X+X;;;;;",
";;;;;;X+OoOOO@ooOo@@@@%@@%@%%%%&&%&%%%@%oo@o%@oooOO++X++XX;;;;;;",
";;;;;;;X+OooOOooOoo@o@@o@@o@%@%%%@%@@@@oooo@@oOOOo+OXX+XXX;;;;;;",
";;;;;;;XX+Oo+oOOOOooooo@oOoo@@@%@%@o@@oooOoooOOOoOO+XXXXX;;;;;;;",
";;;;;;;;XXXOoooooOOOOoooOooOoO%@@@@ooo@o+O+OOoO+++++X+X;;;;;;;;;",
";;;;;;;;;X++OOOooOO++OOOoo@ooOoo@ooooOO+O+X++OO++++X+X;;;;;;;;;;",
";;;;;;;;;X+X++OOO+OO+Ooo@@ooOooooOoOO++OOoO++XX+X++++X;;;;;;;;;;",
";;;;;;;;;;XOOO+XXX+OOOOoooOOOOooOOOO+OOooOOO++XX++++X;;;;;;;;;;;",
";;;;;;;;;;;;+OOOO+++O+OOOO++OOOO++XX++OOOOO++++X++XX;;;;;;;;;;;;",
";;;;;;;;;;;;;+XOOOOOO+O++XX+++OOOO+OO+++OO++X++XXX;;;;;;;;;;;;;;",
";;;;;;;;;;;;;;+XX+OOO+++OO+X+OOOOO++OO+X++++XXX;;;;;;;;;;;;;;;;;",
";;;;;;;;;;;;;;;;;+XX+X+X++XXX++OO+OO+++XX++XX;;;;;;;;;;;;;;;;;;;",
";;;;;;;;;;;;;;;;;;;;XXXXXXXX XXX++++X+XXXX;;;;;;;;;;;;;;;;;;;;;;",
";;;;;;;;;;;;;;;;;;;;;;;;;;;;.######.;;;;;;;;;;;;;;;;;;;;;;;;;;;;",
";;;;;;;;;;;;;;;;;;;;;;;;;;;;.######.;;;;;;;;;;;;;;;;;;;;;;;;;;;;",
";;;;;;;;;;;;;;;;;;;;;;;;;;...$==$##...;;;;;;;;;;;;;;;;;;;;;;;;;;",
";;;;;;;;;;;;;;;;;;;;;;;;;.#=$=-==$####.;;;;;;;;;;;;;;;;;;;;;;;;;",
";;;;;;;;;;;;;;;;;;;;;;;;;;.#=--==$=$#.;;;;;;;;;;;;;;;;;;;;;;;;;;",
";;;;;;;;;;;;;;;;;;;;;;;;;.$=--=-=$$-=#.;;;;;;;;;;;;;;;;;;;;;;;;;",
";;;;;;;;;;;;;;;;;;;;;;;;;;.$$=$-$$###.;;;;;;;;;;;;;;;;;;;;;;;;;;",
";;;;;;;;;;;;;;;;;;;;;;;;;;;...#$$#...;;;;;;;;;;;;;;;;;;;;;;;;;;;",
";;;;;;;;;;;;;;;;;;;;;;;;;;;;;;....;;;;;;;;;;;;;;;;;;;;;;;;;;;;;;",
";;;;;;;;;;;;;;;;;;;;;;;;;;;;;;;;;;;;;;;;;;;;;;;;;;;;;;;;;;;;;;;;"
};
