/* XPM */
static char *result[] = {
/* columns rows colors chars-per-pixel */
"64 32 18 1 ",
"  c #2B2B2C",
". c #2B2B2D",
"X c #2C2C2C",
"o c #2D2D2E",
"O c #2E2D2E",
"+ c #2F2C31",
"@ c #2F2F31",
"# c #302E30",
"$ c #313133",
"% c #323133",
"& c #403E3F",
"* c #555152",
"= c #72635B",
"- c #8B7660",
"; c #A88B65",
": c #AFA06B",
"> c #C5B379",
", c None",
/* pixels */
",,,,,,,,,,,,,,,,,,,,,,,,,,,,,,,,,,,,,,,,,,,,,,,,,,,,,,,,,,,,,,,,",
",,,,,,,,,,,,,,,,,,,,,,,,,,,,,,,,,,,,,,,,,,,,,,,,,,,,,,,,,,,,,,,,",
",,,,,,,,,,,,,,,,,,,,,,,,,,,,,,,,,,,,,,,,,,,,,,,,,,,,,,,,,,,,,,,,",
",,,,,,,,,,,,,,,,,,,,,,,,,,,,,->;&,,,,,,,,,,,,,,,,,,,,,,,,,,,,,,,",
",,,,,,,,,,,,,,,,,,,,,,,,,,,,->-=;&,,,,,,,,,,,,,,,,,,,,,,,,,,,,,,",
",,,,,,,,,,,,,,,,,,,,,,,,,,,-:>%%-&,,,,,,,,,,,,,,,,,,,,,,,,,,,,,,",
",,,,,,,,,,,,,,,,,,,,,,,,,,-:>:>:=&,,,,,,,,,,,,,,,,,,,,,,,,,,,,,,",
",,,,,,,,****************&->>-=**&,,,,,,,,,,,,,,,,,,,,,,,,,,,,,,,",
",,,,,,,-=;:;:;::::;;===&>>:-==*&&&&&&&&&&&&&&&&&&&&&&&&&,,,,,,,,",
",,,,,,->:>>>>>>>:>::;=&:>:;==*&***=================*****&&,,,,,,",
",,,,,->:%%=>>>::::;;;;==;;==*&**===---;-;;;;;-;-;-=====***&,,,,,",
",,,,,-:%%%%=;;-;-;------===*%*===-----------=--=-=----=-==*&,,,,",
",,,,->%%%%%%>>>>>>>>>:>:;---;::>::::::::;:::;:;;--====*=*&&&,,,,",
",,,,-:%%%%%%=>>>>>>>>>>>>>:::::::;;;;;;;;;;-;;-;;-;-;----==*&,,,",
",,,*>=%%%%%%%>::::::::::::::::;;;;;;----------------------=*&,,,",
",,,*:=**%%%%%:------------------------=--=-=--==-=======***&&$,,",
",,,,*%%%%%%%%%;:>>>>>>>:>>:>::>::::::;::;;:;;:;;;;;;-;-----=*&,,",
",,,->==***%%%:>>>>>:::::::::;;;;;;;;;;;;;;;;-;;-;-;--------=*&,,",
",,,*:===*%%%%>:::;;;;;;;;;;;;;;;------------------====*****&&$,,",
",,,*%%%%%%%%%>:-----------------------*==*==*=***************&,,",
",,,-:***%%%%%-=****=*=*==--------=====---------==-=-=======*&$,,",
",,,&>====**%%>-;;;;--;-----==============================***&,,,",
",,,,=:=**%%%=:;---==============================***********&,,,,",
",,,,&;%%%%%%>;-============******************************&&,,,,,",
",,,,,&>==*%%**==*****************===**=*=*=*********&&&&&@,,,,,,",
",,,,,&;:*%=:=*****=*=**=*====***********&&&&&&&&&&&&+o,,,,,,,,,,",
",,,,,,&;>::=*************&&&&&&&&&&&&&&&OO  .,,,,,,,,,,,,,,,,,,,",
",,,,,,,&&&&&&&&&&&&&&&&&&##XX,,,,,,,,,,,,,,,,,,,,,,,,,,,,,,,,,,,",
",,,,,,,,,,,$$$$$$$$,,,,,,,,,,,,,,,,,,,,,,,,,,,,,,,,,,,,,,,,,,,,,",
",,,,,,,,,,,,,,,,,,,,,,,,,,,,,,,,,,,,,,,,,,,,,,,,,,,,,,,,,,,,,,,,",
",,,,,,,,,,,,,,,,,,,,,,,,,,,,,,,,,,,,,,,,,,,,,,,,,,,,,,,,,,,,,,,,",
",,,,,,,,,,,,,,,,,,,,,,,,,,,,,,,,,,,,,,,,,,,,,,,,,,,,,,,,,,,,,,,,"
};
